G04 Layer: TopPasteMaskLayer*
G04 EasyEDA v6.4.3, 2020-08-09T00:17:02+05:30*
G04 6b3d8b3936fd40358e4656ce58cb2351,cf4aa5727a6a49518b7f5d996050d5f8,10*
G04 Gerber Generator version 0.2*
G04 Scale: 100 percent, Rotated: No, Reflected: No *
G04 Dimensions in millimeters *
G04 leading zeros omitted , absolute positions ,3 integer and 3 decimal *
%FSLAX33Y33*%
%MOMM*%
G90*
G71D02*

%ADD15R,1.999996X0.999998*%
%ADD16R,0.999998X1.999996*%
%ADD17R,1.099998X0.999998*%

%LPD*%
G54D15*
G01X32511Y60074D03*
G01X32511Y58074D03*
G01X32511Y56074D03*
G01X32510Y54074D03*
G01X32511Y52074D03*
G01X32512Y50074D03*
G01X32511Y48074D03*
G01X32509Y46074D03*
G54D16*
G01X29507Y44573D03*
G01X27507Y44574D03*
G01X25508Y44574D03*
G01X23507Y44574D03*
G01X21508Y44574D03*
G01X19511Y44573D03*
G36*
G01X15510Y46574D02*
G01X17510Y46574D01*
G01X17510Y45574D01*
G01X15510Y45574D01*
G01X15510Y46574D01*
G37*
G36*
G01X15509Y48574D02*
G01X17509Y48574D01*
G01X17509Y47574D01*
G01X15509Y47574D01*
G01X15509Y48574D01*
G37*
G36*
G01X15509Y50574D02*
G01X17509Y50574D01*
G01X17509Y49574D01*
G01X15509Y49574D01*
G01X15509Y50574D01*
G37*
G36*
G01X15509Y52574D02*
G01X17509Y52574D01*
G01X17509Y51574D01*
G01X15509Y51574D01*
G01X15509Y52574D01*
G37*
G36*
G01X15509Y54574D02*
G01X17509Y54574D01*
G01X17509Y53574D01*
G01X15509Y53574D01*
G01X15509Y54574D01*
G37*
G36*
G01X15509Y56574D02*
G01X17509Y56574D01*
G01X17509Y55574D01*
G01X15509Y55574D01*
G01X15509Y56574D01*
G37*
G36*
G01X15509Y58574D02*
G01X17509Y58574D01*
G01X17509Y57574D01*
G01X15509Y57574D01*
G01X15509Y58574D01*
G37*
G36*
G01X15509Y60574D02*
G01X17509Y60574D01*
G01X17509Y59574D01*
G01X15509Y59574D01*
G01X15509Y60574D01*
G37*
G54D17*
G01X14986Y38978D03*
G01X14986Y40778D03*
G01X34163Y27929D03*
G01X34163Y29729D03*
M00*
M02*
