G04 Layer: BottomSolderMaskLayer*
G04 EasyEDA v6.4.3, 2020-08-09T00:17:02+05:30*
G04 6b3d8b3936fd40358e4656ce58cb2351,cf4aa5727a6a49518b7f5d996050d5f8,10*
G04 Gerber Generator version 0.2*
G04 Scale: 100 percent, Rotated: No, Reflected: No *
G04 Dimensions in millimeters *
G04 leading zeros omitted , absolute positions ,3 integer and 3 decimal *
%FSLAX33Y33*%
%MOMM*%
G90*
G71D02*

%ADD11C,0.355600*%
%ADD28C,1.981200*%
%ADD30C,1.727200*%
%ADD34C,2.703195*%
%ADD36C,2.003196*%
%ADD38C,0.457200*%

%LPD*%
G54D38*
G01X889Y75057D02*
G01X84836Y74676D01*
G01X84328Y0D01*
G01X75819Y0D01*
G01X74168Y0D01*
G01X508Y14478D02*
G01X889Y75057D01*
G01X508Y14478D02*
G01X889Y75057D01*
G01X889Y75057D02*
G01X84836Y74676D01*
G01X84328Y0D01*
G01X75819Y0D01*
G01X74168Y0D01*
G54D11*
G01X74041Y18669D02*
G01X77851Y13462D01*
G01X77851Y13462D02*
G01X79629Y13335D01*
G01X14986Y18796D02*
G01X17597Y16512D01*
G01X73426Y16929D01*
G01X76052Y13792D01*
G01X76200Y6604D01*
G01X77216Y5715D01*
G01X79756Y5461D01*
G54D28*
G01X20116Y26289D03*
G01X26619Y26289D03*
G36*
G01X40083Y49060D02*
G01X40083Y50761D01*
G01X42085Y50761D01*
G01X42085Y49060D01*
G01X40083Y49060D01*
G37*
G36*
G01X40083Y54140D02*
G01X40083Y55841D01*
G01X42085Y55841D01*
G01X42085Y54140D01*
G01X40083Y54140D01*
G37*
G36*
G01X40083Y56680D02*
G01X40083Y58381D01*
G01X42085Y58381D01*
G01X42085Y56680D01*
G01X40083Y56680D01*
G37*
G36*
G01X40083Y59220D02*
G01X40083Y60921D01*
G01X42085Y60921D01*
G01X42085Y59220D01*
G01X40083Y59220D01*
G37*
G36*
G01X40083Y61760D02*
G01X40083Y63461D01*
G01X42085Y63461D01*
G01X42085Y61760D01*
G01X40083Y61760D01*
G37*
G36*
G01X61800Y54140D02*
G01X61800Y55841D01*
G01X63802Y55841D01*
G01X63802Y54140D01*
G01X61800Y54140D01*
G37*
G36*
G01X61800Y56680D02*
G01X61800Y58381D01*
G01X63802Y58381D01*
G01X63802Y56680D01*
G01X61800Y56680D01*
G37*
G36*
G01X61800Y59220D02*
G01X61800Y60921D01*
G01X63802Y60921D01*
G01X63802Y59220D01*
G01X61800Y59220D01*
G37*
G36*
G01X61800Y61760D02*
G01X61800Y63461D01*
G01X63802Y63461D01*
G01X63802Y61760D01*
G01X61800Y61760D01*
G37*
G54D30*
G01X62484Y22098D03*
G01X62484Y24638D03*
G01X62484Y27178D03*
G01X62484Y29718D03*
G01X62484Y32258D03*
G01X62484Y34798D03*
G01X42164Y32258D03*
G01X42164Y29718D03*
G01X42164Y27178D03*
G01X42164Y24638D03*
G36*
G01X5887Y23159D02*
G01X5887Y25862D01*
G01X8590Y25862D01*
G01X8590Y23159D01*
G01X5887Y23159D01*
G37*
G54D34*
G01X7239Y29510D03*
G36*
G01X73959Y26842D02*
G01X73959Y29545D01*
G01X76662Y29545D01*
G01X76662Y26842D01*
G01X73959Y26842D01*
G37*
G01X75311Y23194D03*
G36*
G01X6395Y63799D02*
G01X6395Y66502D01*
G01X9098Y66502D01*
G01X9098Y63799D01*
G01X6395Y63799D01*
G37*
G01X7747Y70150D03*
G36*
G01X75864Y69387D02*
G01X75864Y72090D01*
G01X78567Y72090D01*
G01X78567Y69387D01*
G01X75864Y69387D01*
G37*
G01X77216Y65739D03*
G54D36*
G01X79756Y5461D03*
G36*
G01X78755Y1920D02*
G01X78755Y3921D01*
G01X80756Y3921D01*
G01X80756Y1920D01*
G01X78755Y1920D01*
G37*
G01X79629Y13335D03*
G36*
G01X78628Y9794D02*
G01X78628Y11795D01*
G01X80629Y11795D01*
G01X80629Y9794D01*
G01X78628Y9794D01*
G37*
M00*
M02*
