G04 Layer: TopSilkLayer*
G04 EasyEDA v6.4.3, 2020-08-09T00:17:02+05:30*
G04 6b3d8b3936fd40358e4656ce58cb2351,cf4aa5727a6a49518b7f5d996050d5f8,10*
G04 Gerber Generator version 0.2*
G04 Scale: 100 percent, Rotated: No, Reflected: No *
G04 Dimensions in millimeters *
G04 leading zeros omitted , absolute positions ,3 integer and 3 decimal *
%FSLAX33Y33*%
%MOMM*%
G90*
G71D02*

%ADD10C,0.254000*%
%ADD25C,0.203200*%
%ADD26C,0.152400*%

%LPD*%
G54D10*
G01X69278Y37973D02*
G01X34353Y37973D01*
G01X34353Y72771D01*
G01X69278Y72771D01*
G01X69278Y37973D01*
G01X66738Y70358D02*
G01X37274Y70358D01*
G01X37274Y70358D02*
G01X37274Y40767D01*
G01X66738Y40767D02*
G01X66738Y70358D01*
G01X66738Y40767D02*
G01X37274Y40767D01*
G01X63634Y20612D02*
G01X39504Y20612D01*
G01X39504Y36282D01*
G01X63634Y36282D01*
G01X63634Y20612D01*
G01X18509Y59574D02*
G01X18509Y46574D01*
G01X30509Y46574D01*
G01X30509Y59574D01*
G01X18509Y59574D01*
G01X29509Y62574D02*
G01X19509Y62574D01*
G01X19509Y67574D01*
G01X20509Y67574D01*
G01X20509Y64574D01*
G01X21509Y64574D01*
G01X21509Y67574D01*
G01X22509Y67574D01*
G01X22509Y64574D01*
G01X23509Y64574D01*
G01X23509Y67574D01*
G01X24509Y67574D01*
G01X24509Y64574D01*
G01X25509Y64574D01*
G01X25509Y67574D01*
G01X31509Y67574D01*
G01X17509Y61574D02*
G01X31509Y61574D01*
G01X16509Y68574D02*
G01X32509Y68574D01*
G01X32509Y68574D02*
G01X32509Y60805D01*
G01X32509Y59343D02*
G01X32509Y58805D01*
G01X32509Y57343D02*
G01X32509Y56805D01*
G01X32509Y55343D02*
G01X32509Y54805D01*
G01X32509Y53343D02*
G01X32509Y52805D01*
G01X32509Y51343D02*
G01X32509Y50805D01*
G01X32509Y49343D02*
G01X32509Y48805D01*
G01X32509Y47343D02*
G01X32509Y46805D01*
G01X32509Y45343D02*
G01X32509Y44574D01*
G01X32509Y44574D02*
G01X30238Y44574D01*
G01X28776Y44574D02*
G01X28238Y44574D01*
G01X26776Y44574D02*
G01X26239Y44574D01*
G01X24777Y44574D02*
G01X24238Y44574D01*
G01X22776Y44574D02*
G01X22240Y44574D01*
G01X20777Y44574D02*
G01X20242Y44574D01*
G01X18779Y44574D02*
G01X16509Y44574D01*
G01X16509Y44574D02*
G01X16509Y45343D01*
G01X16509Y46805D02*
G01X16509Y47343D01*
G01X16509Y48805D02*
G01X16509Y49343D01*
G01X16509Y50805D02*
G01X16509Y51343D01*
G01X16509Y52805D02*
G01X16509Y53343D01*
G01X16509Y54805D02*
G01X16509Y55343D01*
G01X16509Y56805D02*
G01X16509Y57343D01*
G01X16509Y58805D02*
G01X16509Y59343D01*
G01X16509Y60805D02*
G01X16509Y68574D01*
G01X4639Y23210D02*
G01X3838Y23211D01*
G01X3838Y25810D01*
G01X4638Y25810D01*
G01X4638Y23211D01*
G01X2185Y22024D02*
G01X2185Y31924D01*
G01X2185Y31924D02*
G01X12285Y31924D01*
G01X12285Y31924D02*
G01X12285Y22024D01*
G01X12285Y22024D02*
G01X2185Y22024D01*
G01X9652Y31877D02*
G01X9652Y22098D01*
G01X4639Y28210D02*
G01X3838Y28210D01*
G01X3838Y30810D01*
G01X4638Y30810D01*
G01X4638Y28210D01*
G01X77910Y29494D02*
G01X78711Y29493D01*
G01X78711Y26894D01*
G01X77911Y26894D01*
G01X77911Y29493D01*
G01X80364Y30680D02*
G01X80364Y20780D01*
G01X80364Y20780D02*
G01X70264Y20780D01*
G01X70264Y20780D02*
G01X70264Y30680D01*
G01X70264Y30680D02*
G01X80364Y30680D01*
G01X72898Y20828D02*
G01X72898Y30607D01*
G01X77910Y24494D02*
G01X78711Y24494D01*
G01X78711Y21894D01*
G01X77911Y21894D01*
G01X77911Y24494D01*
G01X5147Y63850D02*
G01X4346Y63851D01*
G01X4346Y66450D01*
G01X5146Y66450D01*
G01X5146Y63851D01*
G01X2693Y62664D02*
G01X2693Y72564D01*
G01X2693Y72564D02*
G01X12793Y72564D01*
G01X12793Y72564D02*
G01X12793Y62664D01*
G01X12793Y62664D02*
G01X2693Y62664D01*
G01X10160Y72517D02*
G01X10160Y62738D01*
G01X5147Y68850D02*
G01X4346Y68850D01*
G01X4346Y71450D01*
G01X5146Y71450D01*
G01X5146Y68850D01*
G01X79815Y72039D02*
G01X80616Y72038D01*
G01X80616Y69439D01*
G01X79816Y69439D01*
G01X79816Y72038D01*
G01X82269Y73225D02*
G01X82269Y63325D01*
G01X82269Y63325D02*
G01X72169Y63325D01*
G01X72169Y63325D02*
G01X72169Y73225D01*
G01X72169Y73225D02*
G01X82269Y73225D01*
G01X74803Y63373D02*
G01X74803Y73152D01*
G01X79815Y67039D02*
G01X80616Y67039D01*
G01X80616Y64439D01*
G01X79816Y64439D01*
G01X79816Y67039D01*
G01X14385Y41528D02*
G01X15585Y41528D01*
G01X14185Y39478D02*
G01X14185Y38478D01*
G01X15786Y39478D02*
G01X15786Y38478D01*
G01X14185Y40278D02*
G01X14185Y41277D01*
G01X15786Y40278D02*
G01X15786Y41277D01*
G01X14385Y38227D02*
G01X15585Y38227D01*
G01X14185Y38427D02*
G01X14185Y38478D01*
G01X15786Y38428D02*
G01X15786Y38478D01*
G01X14185Y41328D02*
G01X14185Y41277D01*
G01X15786Y41327D02*
G01X15786Y41277D01*
G01X33562Y30479D02*
G01X34762Y30479D01*
G01X33362Y28429D02*
G01X33362Y27429D01*
G01X34963Y28429D02*
G01X34963Y27429D01*
G01X33362Y29229D02*
G01X33362Y30228D01*
G01X34963Y29229D02*
G01X34963Y30228D01*
G01X33562Y27178D02*
G01X34762Y27178D01*
G01X33362Y27378D02*
G01X33362Y27429D01*
G01X34963Y27379D02*
G01X34963Y27429D01*
G01X33362Y30279D02*
G01X33362Y30228D01*
G01X34963Y30278D02*
G01X34963Y30228D01*
G54D25*
G01X81534Y1651D02*
G01X81534Y4191D01*
G01X81534Y6731D01*
G01X78486Y6731D01*
G01X78486Y1651D01*
G01X81534Y1651D01*
G01X81237Y1651D01*
G01X78486Y4193D02*
G01X81026Y4193D01*
G01X81026Y1651D01*
G01X81407Y9525D02*
G01X81407Y12065D01*
G01X81407Y14605D01*
G01X78359Y14605D01*
G01X78359Y9525D01*
G01X81407Y9525D01*
G01X81110Y9525D01*
G01X78359Y12067D02*
G01X80899Y12067D01*
G01X80899Y9525D01*
G54D26*
G01X23840Y33637D02*
G01X23736Y33741D01*
G01X23581Y33792D01*
G01X23373Y33792D01*
G01X23218Y33741D01*
G01X23114Y33637D01*
G01X23114Y33533D01*
G01X23164Y33428D01*
G01X23218Y33375D01*
G01X23322Y33324D01*
G01X23634Y33220D01*
G01X23736Y33169D01*
G01X23789Y33116D01*
G01X23840Y33012D01*
G01X23840Y32857D01*
G01X23736Y32753D01*
G01X23581Y32702D01*
G01X23373Y32702D01*
G01X23218Y32753D01*
G01X23114Y32857D01*
G01X24963Y33533D02*
G01X24912Y33637D01*
G01X24808Y33741D01*
G01X24704Y33792D01*
G01X24495Y33792D01*
G01X24391Y33741D01*
G01X24287Y33637D01*
G01X24236Y33533D01*
G01X24183Y33375D01*
G01X24183Y33116D01*
G01X24236Y32961D01*
G01X24287Y32857D01*
G01X24391Y32753D01*
G01X24495Y32702D01*
G01X24704Y32702D01*
G01X24808Y32753D01*
G01X24912Y32857D01*
G01X24963Y32961D01*
G01X24963Y33116D01*
G01X24704Y33116D02*
G01X24963Y33116D01*
G01X25306Y33583D02*
G01X25410Y33637D01*
G01X25565Y33792D01*
G01X25565Y32702D01*
G01X52006Y36565D02*
G01X52006Y37655D01*
G01X52006Y36565D02*
G01X51539Y36565D01*
G01X51384Y36616D01*
G01X51330Y36669D01*
G01X51280Y36774D01*
G01X51280Y36929D01*
G01X51330Y37033D01*
G01X51384Y37084D01*
G01X51539Y37137D01*
G01X52006Y37137D01*
G01X50937Y36774D02*
G01X50833Y36720D01*
G01X50675Y36565D01*
G01X50675Y37655D01*
G54D25*
G01X55118Y54592D02*
G01X55118Y56530D01*
G01X55118Y54592D02*
G01X53916Y54592D01*
G01X55118Y55514D02*
G01X54378Y55514D01*
G01X55118Y56530D02*
G01X53916Y56530D01*
G01X53306Y54592D02*
G01X53306Y56530D01*
G01X53306Y54592D02*
G01X52567Y56530D01*
G01X51828Y54592D02*
G01X52567Y56530D01*
G01X51828Y54592D02*
G01X51828Y56530D01*
G01X51219Y54960D02*
G01X51036Y54869D01*
G01X50759Y54592D01*
G01X50759Y56530D01*
G01X49687Y54592D02*
G01X49964Y54683D01*
G01X50055Y54869D01*
G01X50055Y55054D01*
G01X49964Y55237D01*
G01X49778Y55331D01*
G01X49410Y55422D01*
G01X49133Y55514D01*
G01X48948Y55699D01*
G01X48856Y55885D01*
G01X48856Y56161D01*
G01X48948Y56347D01*
G01X49039Y56438D01*
G01X49316Y56530D01*
G01X49687Y56530D01*
G01X49964Y56438D01*
G01X50055Y56347D01*
G01X50149Y56161D01*
G01X50149Y55885D01*
G01X50055Y55699D01*
G01X49872Y55514D01*
G01X49593Y55422D01*
G01X49225Y55331D01*
G01X49039Y55237D01*
G01X48948Y55054D01*
G01X48948Y54869D01*
G01X49039Y54683D01*
G01X49316Y54592D01*
G01X49687Y54592D01*
G54D26*
G01X51816Y19166D02*
G01X51816Y19946D01*
G01X51765Y20101D01*
G01X51661Y20205D01*
G01X51503Y20256D01*
G01X51399Y20256D01*
G01X51244Y20205D01*
G01X51140Y20101D01*
G01X51089Y19946D01*
G01X51089Y19166D01*
G01X50693Y19425D02*
G01X50693Y19375D01*
G01X50642Y19270D01*
G01X50589Y19217D01*
G01X50485Y19166D01*
G01X50279Y19166D01*
G01X50175Y19217D01*
G01X50121Y19270D01*
G01X50071Y19375D01*
G01X50071Y19479D01*
G01X50121Y19583D01*
G01X50225Y19738D01*
G01X50746Y20256D01*
G01X50017Y20256D01*
G01X24383Y69990D02*
G01X24383Y69210D01*
G01X24434Y69055D01*
G01X24538Y68951D01*
G01X24696Y68901D01*
G01X24800Y68901D01*
G01X24955Y68951D01*
G01X25059Y69055D01*
G01X25110Y69210D01*
G01X25110Y69990D01*
G01X25557Y69990D02*
G01X26128Y69990D01*
G01X25818Y69574D01*
G01X25973Y69574D01*
G01X26077Y69523D01*
G01X26128Y69472D01*
G01X26182Y69315D01*
G01X26182Y69210D01*
G01X26128Y69055D01*
G01X26024Y68951D01*
G01X25869Y68901D01*
G01X25714Y68901D01*
G01X25557Y68951D01*
G01X25506Y69002D01*
G01X25453Y69106D01*
G54D25*
G01X19941Y55590D02*
G01X19941Y53652D01*
G01X19941Y55590D02*
G01X21140Y55590D01*
G01X19941Y54668D02*
G01X20678Y54668D01*
G01X19941Y53652D02*
G01X21140Y53652D01*
G01X23042Y55313D02*
G01X22860Y55499D01*
G01X22583Y55590D01*
G01X22212Y55590D01*
G01X21935Y55499D01*
G01X21750Y55313D01*
G01X21750Y55130D01*
G01X21844Y54945D01*
G01X21935Y54853D01*
G01X22120Y54759D01*
G01X22674Y54574D01*
G01X22860Y54483D01*
G01X22951Y54391D01*
G01X23042Y54206D01*
G01X23042Y53929D01*
G01X22860Y53743D01*
G01X22583Y53652D01*
G01X22212Y53652D01*
G01X21935Y53743D01*
G01X21750Y53929D01*
G01X23652Y55590D02*
G01X23652Y53652D01*
G01X23652Y55590D02*
G01X24485Y55590D01*
G01X24762Y55499D01*
G01X24853Y55407D01*
G01X24945Y55222D01*
G01X24945Y54945D01*
G01X24853Y54759D01*
G01X24762Y54668D01*
G01X24485Y54574D01*
G01X23652Y54574D01*
G01X25554Y55222D02*
G01X25740Y55313D01*
G01X26017Y55590D01*
G01X26017Y53652D01*
G01X26720Y55130D02*
G01X26720Y55222D01*
G01X26812Y55407D01*
G01X26903Y55499D01*
G01X27089Y55590D01*
G01X27459Y55590D01*
G01X27642Y55499D01*
G01X27736Y55407D01*
G01X27828Y55222D01*
G01X27828Y55036D01*
G01X27736Y54853D01*
G01X27551Y54574D01*
G01X26626Y53652D01*
G01X27919Y53652D01*
G01X28529Y55590D02*
G01X28529Y53652D01*
G01X28529Y55590D02*
G01X29730Y55590D01*
G01X28529Y54668D02*
G01X29268Y54668D01*
G54D26*
G01X751Y27340D02*
G01X1841Y26924D01*
G01X751Y27340D02*
G01X1841Y27754D01*
G01X1478Y27078D02*
G01X1478Y27599D01*
G01X1374Y28097D02*
G01X1374Y29032D01*
G01X81798Y25781D02*
G01X80708Y25781D01*
G01X81798Y25781D02*
G01X81798Y25105D01*
G01X81280Y25781D02*
G01X81280Y25364D01*
G01X80708Y25781D02*
G01X80708Y25105D01*
G01X81175Y24762D02*
G01X81175Y23827D01*
G01X1259Y67980D02*
G01X2349Y67564D01*
G01X1259Y67980D02*
G01X2349Y68394D01*
G01X1986Y67718D02*
G01X1986Y68239D01*
G01X1414Y69204D02*
G01X2349Y69204D01*
G01X1882Y68737D02*
G01X1882Y69672D01*
G01X83703Y68326D02*
G01X82613Y68326D01*
G01X83703Y68326D02*
G01X83703Y67650D01*
G01X83185Y68326D02*
G01X83185Y67909D01*
G01X82613Y68326D02*
G01X82613Y67650D01*
G01X83548Y66840D02*
G01X82613Y66840D01*
G01X83080Y67307D02*
G01X83080Y66372D01*
G01X12948Y40646D02*
G01X12844Y40593D01*
G01X12740Y40489D01*
G01X12689Y40387D01*
G01X12689Y40179D01*
G01X12740Y40075D01*
G01X12844Y39971D01*
G01X12948Y39917D01*
G01X13106Y39866D01*
G01X13365Y39866D01*
G01X13520Y39917D01*
G01X13624Y39971D01*
G01X13728Y40075D01*
G01X13779Y40179D01*
G01X13779Y40387D01*
G01X13728Y40489D01*
G01X13624Y40593D01*
G01X13520Y40646D01*
G01X12898Y40989D02*
G01X12844Y41093D01*
G01X12689Y41248D01*
G01X13779Y41248D01*
G01X32125Y29597D02*
G01X32021Y29544D01*
G01X31917Y29440D01*
G01X31866Y29338D01*
G01X31866Y29130D01*
G01X31917Y29026D01*
G01X32021Y28922D01*
G01X32125Y28868D01*
G01X32283Y28817D01*
G01X32542Y28817D01*
G01X32697Y28868D01*
G01X32801Y28922D01*
G01X32905Y29026D01*
G01X32956Y29130D01*
G01X32956Y29338D01*
G01X32905Y29440D01*
G01X32801Y29544D01*
G01X32697Y29597D01*
G01X32125Y29991D02*
G01X32075Y29991D01*
G01X31970Y30044D01*
G01X31917Y30095D01*
G01X31866Y30199D01*
G01X31866Y30407D01*
G01X31917Y30512D01*
G01X31970Y30562D01*
G01X32075Y30616D01*
G01X32179Y30616D01*
G01X32283Y30562D01*
G01X32438Y30458D01*
G01X32956Y29940D01*
G01X32956Y30667D01*
G01X80114Y8138D02*
G01X80685Y8138D01*
G01X80373Y7721D01*
G01X80530Y7721D01*
G01X80632Y7670D01*
G01X80685Y7620D01*
G01X80736Y7462D01*
G01X80736Y7358D01*
G01X80685Y7203D01*
G01X80581Y7099D01*
G01X80426Y7048D01*
G01X80269Y7048D01*
G01X80114Y7099D01*
G01X80060Y7150D01*
G01X80010Y7254D01*
G01X81132Y7307D02*
G01X81079Y7254D01*
G01X81132Y7203D01*
G01X81183Y7254D01*
G01X81132Y7307D01*
G01X81630Y8138D02*
G01X82202Y8138D01*
G01X81889Y7721D01*
G01X82047Y7721D01*
G01X82151Y7670D01*
G01X82202Y7620D01*
G01X82255Y7462D01*
G01X82255Y7358D01*
G01X82202Y7203D01*
G01X82097Y7099D01*
G01X81942Y7048D01*
G01X81788Y7048D01*
G01X81630Y7099D01*
G01X81579Y7150D01*
G01X81526Y7254D01*
G01X82598Y8138D02*
G01X83012Y7048D01*
G01X83428Y8138D02*
G01X83012Y7048D01*
G01X80505Y16012D02*
G01X79987Y16012D01*
G01X79933Y15544D01*
G01X79987Y15595D01*
G01X80142Y15648D01*
G01X80299Y15648D01*
G01X80454Y15595D01*
G01X80558Y15494D01*
G01X80609Y15336D01*
G01X80609Y15232D01*
G01X80558Y15077D01*
G01X80454Y14973D01*
G01X80299Y14922D01*
G01X80142Y14922D01*
G01X79987Y14973D01*
G01X79933Y15024D01*
G01X79883Y15128D01*
G01X80952Y16012D02*
G01X81368Y14922D01*
G01X81785Y16012D02*
G01X81368Y14922D01*
G54D10*
G75*
G01X10739Y23811D02*
G02X10739Y25311I271J750D01*
G01*
G75*
G01X10739Y23811D02*
G03X10739Y25311I-271J750D01*
G01*
G75*
G01X10759Y28769D02*
G02X10759Y30269I271J750D01*
G01*
G75*
G01X10759Y28769D02*
G03X10759Y30269I-271J750D01*
G01*
G75*
G01X71811Y28894D02*
G02X71811Y27394I-271J-750D01*
G01*
G75*
G01X71811Y28894D02*
G03X71811Y27394I271J-750D01*
G01*
G75*
G01X71791Y23936D02*
G02X71791Y22436I-271J-750D01*
G01*
G75*
G01X71791Y23936D02*
G03X71791Y22436I271J-750D01*
G01*
G75*
G01X11247Y64451D02*
G02X11247Y65951I271J750D01*
G01*
G75*
G01X11247Y64451D02*
G03X11247Y65951I-271J750D01*
G01*
G75*
G01X11267Y69409D02*
G02X11267Y70909I271J750D01*
G01*
G75*
G01X11267Y69409D02*
G03X11267Y70909I-271J750D01*
G01*
G75*
G01X73716Y71439D02*
G02X73716Y69939I-271J-750D01*
G01*
G75*
G01X73716Y71439D02*
G03X73716Y69939I271J-750D01*
G01*
G75*
G01X73696Y66481D02*
G02X73696Y64981I-271J-750D01*
G01*
G75*
G01X73696Y66481D02*
G03X73696Y64981I271J-750D01*
G01*
G75*
G01X14386Y38228D02*
G02X14186Y38428I0J200D01*
G01*
G75*
G01X15586Y38228D02*
G03X15786Y38428I0J200D01*
G01*
G75*
G01X14386Y41528D02*
G03X14186Y41328I0J-200D01*
G01*
G75*
G01X15586Y41528D02*
G02X15786Y41328I0J-200D01*
G01*
G75*
G01X33563Y27179D02*
G02X33363Y27379I0J200D01*
G01*
G75*
G01X34763Y27179D02*
G03X34963Y27379I0J200D01*
G01*
G75*
G01X33563Y30479D02*
G03X33363Y30279I0J-200D01*
G01*
G75*
G01X34763Y30479D02*
G02X34963Y30279I0J-200D01*
G01*
G75*
G01X29261Y26289D02*
G03X29261Y26289I-5893J0D01*
G01*
G75*
G01X63500Y20955D02*
G03X63500Y20955I-254J0D01*
G01*
G75*
G01X5589Y24511D02*
G03X5589Y24511I-1350J0D01*
G01*
G75*
G01X5589Y29511D02*
G03X5589Y29511I-1350J0D01*
G01*
G75*
G01X79661Y28194D02*
G03X79661Y28194I-1350J0D01*
G01*
G75*
G01X79661Y23194D02*
G03X79661Y23194I-1350J0D01*
G01*
G75*
G01X6097Y65151D02*
G03X6097Y65151I-1350J0D01*
G01*
G75*
G01X6097Y70151D02*
G03X6097Y70151I-1350J0D01*
G01*
G75*
G01X81566Y70739D02*
G03X81566Y70739I-1350J0D01*
G01*
G75*
G01X81566Y65739D02*
G03X81566Y65739I-1350J0D01*
G01*
M00*
M02*
