;Layer: Drill PTH
;EasyEDA v6.4.3, 2020-08-09T00:17:02+05:30
;6b3d8b3936fd40358e4656ce58cb2351,cf4aa5727a6a49518b7f5d996050d5f8,10
;Gerber Generator version 0.2
M48
METRIC,LZ,000.000
;Holesize 1 = 0.305 METRIC
T01C0.305
;Holesize 2 = 0.310 METRIC
T02C0.310
;Holesize 3 = 0.900 METRIC
T03C0.900
;Holesize 4 = 0.915 METRIC
T04C0.915
;Holesize 5 = 1.000 METRIC
T05C1.000
;Holesize 6 = 1.200 METRIC
T06C1.200
;Holesize 7 = 1.751 METRIC
T07C1.751
%
G05
G90
T01
X+014986Y+018796
X+074041Y+018669
X+000889Y+075057
T02
X+020482Y+028023
X+029507Y+030025
X+070866Y+044363
X+018288Y+046736
T03
X+020116Y+026289
X+026619Y+026289
T04
X+041084Y+049911
X+041084Y+054991
X+041084Y+057531
X+041084Y+060071
X+041084Y+062611
X+062801Y+054991
X+062801Y+057531
X+062801Y+060071
X+062801Y+062611
T05
X+062484Y+022098
X+062484Y+024638
X+062484Y+027178
X+062484Y+029718
X+062484Y+032258
X+062484Y+034798
X+042164Y+032258
X+042164Y+029718
X+042164Y+027178
X+042164Y+024638
T06
X+079756Y+005461
X+079756Y+002921
X+079629Y+013335
X+079629Y+010795
T07
X+007238Y+024510
X+007238Y+029510
X+075311Y+028194
X+075311Y+023194
X+007746Y+065150
X+007746Y+070150
X+077216Y+070739
X+077216Y+065739
M30
