G04 Layer: TopLayer*
G04 EasyEDA v6.4.3, 2020-08-09T00:17:02+05:30*
G04 6b3d8b3936fd40358e4656ce58cb2351,cf4aa5727a6a49518b7f5d996050d5f8,10*
G04 Gerber Generator version 0.2*
G04 Scale: 100 percent, Rotated: No, Reflected: No *
G04 Dimensions in millimeters *
G04 leading zeros omitted , absolute positions ,3 integer and 3 decimal *
%FSLAX33Y33*%
%MOMM*%
G90*
G71D02*

%ADD10C,0.254000*%
%ADD11C,0.355600*%
%ADD12C,0.259994*%
%ADD13C,0.610006*%
%ADD14C,0.609600*%
%ADD15R,1.999996X0.999998*%
%ADD16R,0.999998X1.999996*%
%ADD17R,1.099998X0.999998*%
%ADD18C,1.778000*%
%ADD20C,1.524000*%
%ADD21R,2.499995X2.499995*%
%ADD22C,2.499995*%
%ADD23C,1.799996*%

%LPD*%
G54D11*
G01X889Y75057D02*
G01X84836Y74676D01*
G01X84328Y0D01*
G01X75819Y0D01*
G01X74168Y0D01*
G01X74168Y6858D01*
G01X74168Y14224D01*
G01X508Y14478D01*
G01X889Y75057D01*
G54D12*
G01X16510Y46075D02*
G01X15217Y46075D01*
G01X14986Y40777D02*
G01X14986Y45841D01*
G01X15217Y46075D01*
G54D10*
G01X79629Y10795D02*
G01X82550Y9398D01*
G01X82677Y4699D01*
G01X79756Y2921D01*
G54D12*
G01X82550Y12700D02*
G01X79629Y10795D01*
G01X77216Y69197D02*
G01X79756Y66657D01*
G01X79756Y34180D01*
G01X75311Y29735D01*
G01X75311Y26652D02*
G01X82534Y19464D01*
G01X82550Y15367D01*
G01X82550Y12700D01*
G54D10*
G01X34163Y27929D02*
G01X35560Y26416D01*
G01X35560Y20955D01*
G01X37973Y18415D01*
G01X74041Y18669D01*
G01X14986Y38978D02*
G01X14986Y18796D01*
G54D12*
G01X75217Y46799D02*
G01X73301Y46799D01*
G01X70866Y44363D01*
G01X18288Y46736D02*
G01X17802Y46791D01*
G01X17802Y46075D01*
G01X16510Y46075D02*
G01X17802Y46075D01*
G01X29507Y44574D02*
G01X29507Y30025D01*
G01X16510Y54074D02*
G01X17802Y54074D01*
G01X17802Y54074D02*
G01X20482Y51394D01*
G01X20482Y28023D01*
G01X33157Y46075D02*
G01X33157Y32824D01*
G01X26619Y26289D01*
G01X33157Y46075D02*
G01X33802Y46075D01*
G01X32509Y46075D02*
G01X33157Y46075D01*
G01X33802Y46075D02*
G01X41084Y53357D01*
G01X41084Y54991D01*
G01X7239Y24511D02*
G01X7239Y26052D01*
G01X7747Y65151D02*
G01X7747Y63609D01*
G01X75311Y28194D02*
G01X75311Y29735D01*
G01X77216Y70739D02*
G01X77216Y69197D01*
G01X75311Y28194D02*
G01X75311Y26652D01*
G01X77216Y65737D02*
G01X63969Y52491D01*
G01X63969Y23583D01*
G01X62484Y22098D01*
G01X62801Y60071D02*
G01X62801Y59029D01*
G01X32512Y54074D02*
G01X33802Y54074D01*
G01X33802Y54074D02*
G01X38757Y59029D01*
G01X62801Y59029D01*
G01X41084Y49911D02*
G01X41084Y48869D01*
G01X42164Y32258D02*
G01X42164Y47790D01*
G01X41084Y48869D01*
G01X34163Y30520D02*
G01X40426Y30520D01*
G01X42164Y32258D01*
G01X34163Y29728D02*
G01X34163Y30520D01*
G01X41084Y57531D02*
G01X41084Y56489D01*
G01X41084Y56489D02*
G01X40482Y56489D01*
G01X34386Y50391D01*
G01X34386Y49951D01*
G01X33507Y49075D01*
G01X31470Y49075D01*
G01X28508Y46111D01*
G01X28508Y34681D01*
G01X20116Y26289D01*
G01X7747Y63609D02*
G01X12827Y61087D01*
G01X12827Y31640D01*
G01X7239Y26052D01*
G54D15*
G01X32511Y60074D03*
G01X32511Y58074D03*
G01X32511Y56074D03*
G01X32510Y54074D03*
G01X32511Y52074D03*
G01X32512Y50074D03*
G01X32511Y48074D03*
G01X32509Y46074D03*
G54D16*
G01X29507Y44573D03*
G01X27507Y44574D03*
G01X25508Y44574D03*
G01X23507Y44574D03*
G01X21508Y44574D03*
G01X19511Y44573D03*
G36*
G01X15510Y46574D02*
G01X17510Y46574D01*
G01X17510Y45574D01*
G01X15510Y45574D01*
G01X15510Y46574D01*
G37*
G36*
G01X15509Y48574D02*
G01X17509Y48574D01*
G01X17509Y47574D01*
G01X15509Y47574D01*
G01X15509Y48574D01*
G37*
G36*
G01X15509Y50574D02*
G01X17509Y50574D01*
G01X17509Y49574D01*
G01X15509Y49574D01*
G01X15509Y50574D01*
G37*
G36*
G01X15509Y52574D02*
G01X17509Y52574D01*
G01X17509Y51574D01*
G01X15509Y51574D01*
G01X15509Y52574D01*
G37*
G36*
G01X15509Y54574D02*
G01X17509Y54574D01*
G01X17509Y53574D01*
G01X15509Y53574D01*
G01X15509Y54574D01*
G37*
G36*
G01X15509Y56574D02*
G01X17509Y56574D01*
G01X17509Y55574D01*
G01X15509Y55574D01*
G01X15509Y56574D01*
G37*
G36*
G01X15509Y58574D02*
G01X17509Y58574D01*
G01X17509Y57574D01*
G01X15509Y57574D01*
G01X15509Y58574D01*
G37*
G36*
G01X15509Y60574D02*
G01X17509Y60574D01*
G01X17509Y59574D01*
G01X15509Y59574D01*
G01X15509Y60574D01*
G37*
G54D17*
G01X14986Y38978D03*
G01X14986Y40778D03*
G01X34163Y27929D03*
G01X34163Y29729D03*

%LPD*%
G36*
G01X77724Y59182D02*
G01X72644Y59182D01*
G01X72771Y34417D01*
G01X77724Y34417D01*
G01X77724Y59182D01*
G37*
G54D18*
G01X20116Y26289D03*
G01X26619Y26289D03*
G36*
G01X41984Y50660D02*
G01X41984Y49161D01*
G01X40185Y49161D01*
G01X40185Y50660D01*
G01X41984Y50660D01*
G37*
G36*
G01X41984Y55740D02*
G01X41984Y54241D01*
G01X40185Y54241D01*
G01X40185Y55740D01*
G01X41984Y55740D01*
G37*
G36*
G01X41984Y58280D02*
G01X41984Y56781D01*
G01X40185Y56781D01*
G01X40185Y58280D01*
G01X41984Y58280D01*
G37*
G36*
G01X41984Y60820D02*
G01X41984Y59321D01*
G01X40185Y59321D01*
G01X40185Y60820D01*
G01X41984Y60820D01*
G37*
G36*
G01X41984Y63360D02*
G01X41984Y61861D01*
G01X40185Y61861D01*
G01X40185Y63360D01*
G01X41984Y63360D01*
G37*
G36*
G01X63701Y55740D02*
G01X63701Y54241D01*
G01X61902Y54241D01*
G01X61902Y55740D01*
G01X63701Y55740D01*
G37*
G36*
G01X63701Y58280D02*
G01X63701Y56781D01*
G01X61902Y56781D01*
G01X61902Y58280D01*
G01X63701Y58280D01*
G37*
G36*
G01X63701Y60820D02*
G01X63701Y59321D01*
G01X61902Y59321D01*
G01X61902Y60820D01*
G01X63701Y60820D01*
G37*
G36*
G01X63701Y63360D02*
G01X63701Y61861D01*
G01X61902Y61861D01*
G01X61902Y63360D01*
G01X63701Y63360D01*
G37*
G54D20*
G01X62484Y22098D03*
G01X62484Y24638D03*
G01X62484Y27178D03*
G01X62484Y29718D03*
G01X62484Y32258D03*
G01X62484Y34798D03*
G01X42164Y32258D03*
G01X42164Y29718D03*
G01X42164Y27178D03*
G01X42164Y24638D03*
G54D21*
G01X7239Y24511D03*
G54D22*
G01X7239Y29510D03*
G54D21*
G01X75311Y28194D03*
G54D22*
G01X75311Y23194D03*
G54D21*
G01X7747Y65151D03*
G54D22*
G01X7747Y70150D03*
G54D21*
G01X77216Y70739D03*
G54D22*
G01X77216Y65739D03*
G54D23*
G01X79756Y5461D03*
G36*
G01X78856Y3820D02*
G01X80655Y3820D01*
G01X80655Y2021D01*
G01X78856Y2021D01*
G01X78856Y3820D01*
G37*
G01X79629Y13335D03*
G36*
G01X78729Y11694D02*
G01X80528Y11694D01*
G01X80528Y9895D01*
G01X78729Y9895D01*
G01X78729Y11694D01*
G37*
G54D13*
G01X20482Y28023D03*
G01X29507Y30025D03*
G01X70866Y44363D03*
G01X18288Y46736D03*
G54D14*
G01X14986Y18796D03*
G01X74041Y18669D03*
G01X889Y75057D03*
M00*
M02*
