<?xml version="1.0" encoding="utf-8" standalone="no"?><svg xmlns="http://www.w3.org/2000/svg" xmlns:xlink="http://www.w3.org/1999/xlink" width="92.71000000000001mm" height="84.074mm" viewBox="4246 3040 365 331"><title>Dash PCB</title><style type="text/css">
path, polyline, polygon {stroke-linejoin:round;}
path, polyline, polygon, line {stroke-linecap:round;}
rect, circle, ellipse, polyline, polygon, line, path {shape-rendering:crispEdges;}
*[layerid="0"] {stroke:#FFFFFF; FILL:#FFFFFF;}*[layerid="1"] {stroke:#FF0000; fill:#FF0000;}*[layerid="2"] {stroke:#0000FF; fill:#0000FF;}*[layerid="3"] {stroke:#FFCC00; fill:#FFCC00;}*[layerid="4"] {stroke:#66CC33; fill:#66CC33;}*[layerid="5"] {stroke:#808080; fill:#808080;}*[layerid="6"] {stroke:#800000; fill:#800000;}*[layerid="7"] {stroke:#800080; fill:#800080;}*[layerid="8"] {stroke:#AA00FF; fill:#AA00FF;}*[layerid="9"] {display:none}*[layerid="10"] {stroke:#FF00FF; fill:#FF00FF;}*[layerid="11"] {stroke:#C0C0C0; fill:#C0C0C0;}*[layerid="12"] {stroke:#FFFFFF; fill:#FFFFFF;}*[layerid="13"] {stroke:#33CC99; fill:#33CC99;}*[layerid="14"] {stroke:#5555FF; fill:#5555FF;}*[layerid="15"] {stroke:#F022F0; fill:#F022F0;}*[layerid="16"] {stroke:#FFFFFF; FILL:#FFFFFF;}*[layerid="17"] {stroke:#FFFFFF; FILL:#FFFFFF;}*[layerid="18"] {stroke:#FFFFFF; FILL:#FFFFFF;}*[layerid="19"] {stroke:#66CCFF; fill:#66CCFF;}*[layerid="20"] {stroke:#FFFFFF; FILL:#FFFFFF;}*[layerid="21"] {stroke:#999966; fill:#999966;}*[layerid="22"] {stroke:#008000; fill:#008000;}*[layerid="23"] {stroke:#00FF00; fill:#00FF00;}*[layerid="24"] {stroke:#BC8E00; fill:#BC8E00;}*[fill="none"] {fill: none;}
*[stroke="none"] {stroke: none;}
g[c_partid="part_pad"] > * + circle {fill: #222222;}
g[c_partid="part_via"] > * + circle {fill: #222222;}
g[c_partid="part_pad"] > polyline:nth-of-type(2) {stroke: #222222;}g[c_partid="part_pad"][c_shape="ELLIPSE"]  polyline:nth-last-of-type(1) {stroke:#222222;}g[c_partid="part_pad"][c_shape="RECT"]  polyline:nth-last-of-type(1) {stroke:#222222;}g[c_partid="part_pad"][c_shape="POLYGON"]  polyline:nth-last-of-type(1) {stroke:#222222;}g[c_partid="part_pad"] > polygon[c_etype="pad_outer"], #gCurParts g[c_partid="part_pad"] > polygon[c_etype="pad_outer"] {stroke-linejoin: miter;stroke-miterlimit: 100;}</style>
<rect x="4246" y="3040" width="365" height="331" fill="#000000" stroke="none"/><g importFlag="0"><g><polyline points="4349 3156.5 4354 3156.5 4356 3158.5 4357 3159.5 4357 3160.5" stroke-width="1" c_shapetype="line" stroke-linecap="round" fill="none" layerid="2" locked="0"/><polyline points="4365.5 3139 4365.5 3149.5" stroke-width="1" c_shapetype="line" stroke-linecap="round" fill="none" layerid="2" locked="0"/><polyline points="4355 3132.5 4354.5 3133 4354.5 3137 4351 3140.5 4349 3140.5" stroke-width="1" c_shapetype="line" stroke-linecap="round" fill="none" layerid="2" locked="0"/><polyline points="4336.5 3193.5 4341 3193.5 4350 3202.5" stroke-width="1" c_shapetype="line" stroke-linecap="round" fill="none" layerid="2" locked="0"/><polyline points="4370.5 3116.5 4376 3122 4376 3174.5 4371.5 3179 4349 3179" stroke-width="1" c_shapetype="line" stroke-linecap="round" fill="none" layerid="2" locked="0"><title>GND
 width = 0.254 mm</title></polyline><polyline points="4349 3148.5 4353.5 3148.5 4362 3157 4362 3170" stroke-width="1" c_shapetype="line" stroke-linecap="round" fill="none" layerid="2" locked="0"/><polyline points="4334.5 3197 4340.5 3197 4348 3204.5" stroke-width="1" c_shapetype="line" stroke-linecap="round" fill="none" layerid="2" locked="0"/><polyline points="4360 3227 4355 3223 4355 3204.5 4344 3193" stroke-width="1" c_shapetype="line" stroke-linecap="round" fill="none" layerid="2" locked="0"/><polyline points="4360 3227 4352 3235 4337 3235 4324.5 3247.5 4302 3247.5" stroke-width="1" c_shapetype="line" stroke-linecap="round" fill="none" layerid="2" locked="0"/><polyline points="4360 3227 4360 3229.5 4363.5 3233 4379 3233 4416 3270 4416 3283 4420 3287 4427.5 3287" stroke-width="1" c_shapetype="line" stroke-linecap="round" fill="none" layerid="2" locked="0"/></g><g><polyline points="4256 3050 4600 3051 4601 3361 4256 3360 4256 3050 4256 3050" stroke-width="1" c_shapetype="line" stroke-linecap="round" fill="none" layerid="10" locked="0"/></g><g before-id="layer_11"><polyline points="4279.498 3167.356 4283.354 3163.5 4306 3163.5 4321 3178.5 4332 3178.5 4334.5 3181 4334.5 3197" stroke-width="1" c_shapetype="line" stroke-linecap="round" fill="none" layerid="1" locked="0"/><polyline points="4279.498 3159.4819 4283 3156 4302.5 3156 4321.5 3175.5 4333 3175.5 4336.5 3179 4336.5 3193.5" stroke-width="1" c_shapetype="line" stroke-linecap="round" fill="none" layerid="1" locked="0"/><polyline points="4302 3247.5 4296 3243 4295.9 3237.4" stroke-width="1" c_shapetype="line" stroke-linecap="round" fill="none" layerid="1" locked="0"/><polyline points="4370.5 3156.5 4370.5 3159.5 4364.5 3165.5 4359.5 3165.5 4357 3163 4357 3160.5" stroke-width="1" c_shapetype="line" stroke-linecap="round" fill="none" layerid="1" locked="0"/><polyline points="4390 3227 4390 3232 4382 3237 4360.5 3237 4348.5 3225 4337 3225 4319 3207 4314.5 3207 4308.9 3212.6 4305 3212.6" stroke-width="1" c_shapetype="line" stroke-linecap="round" fill="none" layerid="1" locked="0"/><polyline points="4348 3204.5 4353 3209.5 4353 3226 4362 3235 4376 3235 4380 3232 4380 3227" stroke-width="1" c_shapetype="line" stroke-linecap="round" fill="none" layerid="1" locked="0"/><polyline points="4362 3170 4364.5 3172.5 4367.5 3172.5 4370.5 3169.5 4370.5 3166.5" stroke-width="1" c_shapetype="line" stroke-linecap="round" fill="none" layerid="1" locked="0"/><polyline points="4370.5 3136.5 4370 3137 4370.5 3136.5 4365.5 3139" stroke-width="1" c_shapetype="line" stroke-linecap="round" fill="none" layerid="1" locked="0"/><polyline points="4349 3140.5 4345.5 3140.5 4342.499 3143.7342 4342.499 3143.7339" stroke-width="1" c_shapetype="line" stroke-linecap="round" fill="none" layerid="1" locked="0"/><polyline points="4342.499 3159.4822 4345.4812 3156.5 4345.5 3156.5 4349 3156.5" stroke-width="1" c_shapetype="line" stroke-linecap="round" fill="none" layerid="1" locked="0"/><polyline points="4342.496 3151.6082 4345.6042 3148.5 4349 3148.5" stroke-width="1" c_shapetype="line" stroke-linecap="round" fill="none" layerid="1" locked="0"/><polyline points="4370.5 3106.5 4355 3122 4355 3132.5" stroke-width="1" c_shapetype="line" stroke-linecap="round" fill="none" layerid="1" locked="0"><title>RST
 width = 0.254 mm</title></polyline><polyline points="4344 3193 4342.4912 3191.4912 4342.4912 3183.104" stroke-width="1" c_shapetype="line" stroke-linecap="round" fill="none" layerid="1" locked="0"/><polyline points="4279.501 3183.104 4274.5 3188.105 4274.5 3190 4274.5 3204 4283 3212.5 4283.5 3212.5 4283.6001 3212.6001 4305 3212.6001" stroke-width="1" c_shapetype="line" stroke-linecap="round" fill="none" layerid="1" locked="0"/><polyline points="4380 3307 4380 3316 4384 3320 4406.5 3320 4413 3313.5 4413 3269.5 4423.5 3259 4428.5 3259" stroke-width="1" c_shapetype="line" stroke-linecap="round" fill="none" layerid="1" locked="0"/><polyline points="4358.918 3319.5 4358.918 3323.418 4364.5 3329 4413 3329 4425.5 3316.5 4428.5 3316.5" stroke-width="1" c_shapetype="line" stroke-linecap="round" fill="none" layerid="1" locked="0"/><polyline points="4350 3307 4351 3307 4358.918 3314.918 4358.918 3319.5" stroke-width="1" c_shapetype="line" stroke-linecap="round" fill="none" layerid="1" locked="0"/><polyline points="4361.083 3319.5 4361.083 3321.083 4365 3325 4372.5 3325 4375.082 3322.418 4375.082 3319.5" stroke-width="1" c_shapetype="line" stroke-linecap="round" fill="none" layerid="1" locked="0"/><polyline points="4350 3202.5 4357 3209.5 4357 3217 4360 3220 4364 3220 4370 3226 4370 3227" stroke-width="1" c_shapetype="line" stroke-linecap="round" fill="none" layerid="1" locked="0"/><polyline points="4349 3179 4346.5952 3179 4342.4912 3183.104" stroke-width="1" c_shapetype="line" stroke-linecap="round" fill="none" layerid="1" locked="0"/><polyline points="4305.6 3212 4313.1 3204.5 4317.5 3204.5 4322 3200 4372 3200 4378.5 3193.5 4378.5 3104.5 4370.5 3096.5" stroke-width="1" c_shapetype="line" stroke-linecap="round" fill="none" layerid="1" locked="0"/><polyline points="4279.5 3175.23 4276.27 3172 4274.5 3172 4272.5 3170 4272.5 3126.5 4275.5 3124.5 4350 3124.5 4352.5 3127 4352.5 3134 4363 3144.5 4366.5 3144.5 4370.5 3146.5" stroke-width="1" c_shapetype="line" stroke-linecap="round" fill="none" layerid="1" locked="0"><title>MOSI
 width = 0.254 mm</title></polyline><polyline points="4342.502 3167.356 4345.8579 3164 4352.5 3164 4354 3162.5 4354 3156 4357.5 3152.5 4362.5 3152.5 4365.5 3149.5" stroke-width="1" c_shapetype="line" stroke-linecap="round" fill="none" layerid="1" locked="0"/><polyline points="4360 3307 4360 3311 4363 3314 4367.417 3314 4372.917 3319.5" stroke-width="1" c_shapetype="line" stroke-linecap="round" fill="none" layerid="1" locked="0"/><polyline points="4375.082 3319.5 4375.082 3318.582 4370 3313.5 4370 3307" stroke-width="1" c_shapetype="line" stroke-linecap="round" fill="none" layerid="1" locked="0"/><g c_origin="4305,3225" c_para="package`AMS_1117`" c_partid="part_lib_ggecffd9e0c5c5c12b8" locked="0" c_shapetype="group" c_etype="pinpart" layerid="1" uuid="e0679b602318431cb4892573b6ff08a8" utime="1497460299"><g c_partid="part_pcbtext" c_etype="" c_origin="-29880,-22467" c_rotation="0" c_mirror="0" locked="0" layerid="3" c_shapetype="group" display="none" style=""><path c_fontsize="4.5" c_fontfamily="" c_text="AMS1117-3.3" d="M -29878.36 -22471.54 L -29880 -22467.25 M -29878.36 -22471.54 L -29876.73 -22467.25 M -29879.39 -22468.68 L -29877.34 -22468.68 M -29875.38 -22471.54 L -29875.38 -22467.25 M -29875.38 -22471.54 L -29873.74 -22467.25 M -29872.1 -22471.54 L -29873.74 -22467.25 M -29872.1 -22471.54 L -29872.1 -22467.25 M -29867.89 -22470.93 L -29868.3 -22471.34 L -29868.91 -22471.54 L -29869.73 -22471.54 L -29870.35 -22471.34 L -29870.75 -22470.93 L -29870.75 -22470.52 L -29870.55 -22470.11 L -29870.35 -22469.9 L -29869.94 -22469.7 L -29868.71 -22469.29 L -29868.3 -22469.09 L -29868.1 -22468.88 L -29867.89 -22468.47 L -29867.89 -22467.86 L -29868.3 -22467.45 L -29868.91 -22467.25 L -29869.73 -22467.25 L -29870.35 -22467.45 L -29870.75 -22467.86 M -29866.54 -22470.72 L -29866.13 -22470.93 L -29865.52 -22471.54 L -29865.52 -22467.25 M -29864.17 -22470.72 L -29863.76 -22470.93 L -29863.15 -22471.54 L -29863.15 -22467.25 M -29861.8 -22470.72 L -29861.39 -22470.93 L -29860.77 -22471.54 L -29860.77 -22467.25 M -29856.56 -22471.54 L -29858.6 -22467.25 M -29859.42 -22471.54 L -29856.56 -22471.54 M -29855.21 -22469.09 L -29851.53 -22469.09 M -29849.77 -22471.54 L -29847.52 -22471.54 L -29848.75 -22469.9 L -29848.13 -22469.9 L -29847.72 -22469.7 L -29847.52 -22469.5 L -29847.31 -22468.88 L -29847.31 -22468.47 L -29847.52 -22467.86 L -29847.93 -22467.45 L -29848.54 -22467.25 L -29849.15 -22467.25 L -29849.77 -22467.45 L -29849.97 -22467.65 L -29850.18 -22468.06 M -29845.76 -22468.27 L -29845.96 -22468.06 L -29845.76 -22467.86 L -29845.55 -22468.06 L -29845.76 -22468.27 M -29843.8 -22471.54 L -29841.55 -22471.54 L -29842.77 -22469.9 L -29842.16 -22469.9 L -29841.75 -22469.7 L -29841.55 -22469.5 L -29841.34 -22468.88 L -29841.34 -22468.47 L -29841.55 -22467.86 L -29841.95 -22467.45 L -29842.57 -22467.25 L -29843.18 -22467.25 L -29843.8 -22467.45 L -29844 -22467.65 L -29844.2 -22468.06" fill="none" stroke-width="0.6" c_note="note_name" style=""/></g><g c_partid="part_pcbtext" c_etype="" c_origin="4305,3207" c_rotation="0" c_mirror="0" locked="0" layerid="3" c_shapetype="group" style=""><path c_fontsize="4.5" c_fontfamily="" c_text="U5" d="M 4305 3202.46 L 4305 3205.53 L 4305.2 3206.14 L 4305.61 3206.55 L 4306.23 3206.75 L 4306.64 3206.75 L 4307.25 3206.55 L 4307.66 3206.14 L 4307.86 3205.53 L 4307.86 3202.46 M 4311.67 3202.46 L 4309.62 3202.46 L 4309.42 3204.3 L 4309.62 3204.1 L 4310.24 3203.89 L 4310.85 3203.89 L 4311.46 3204.1 L 4311.87 3204.5 L 4312.08 3205.12 L 4312.08 3205.53 L 4311.87 3206.14 L 4311.46 3206.55 L 4310.85 3206.75 L 4310.24 3206.75 L 4309.62 3206.55 L 4309.42 3206.35 L 4309.21 3205.94" fill="none" stroke-width="0.6" c_note="note_pre" style=""/></g><polyline points="4317.9 3218 4317.9 3232" stroke-width="1" c_shapetype="line" stroke-linecap="round" fill="none" layerid="3" locked="0"/><polyline points="4317.9 3232 4292.1 3232" stroke-width="1" c_shapetype="line" stroke-linecap="round" fill="none" layerid="3" locked="0"/><polyline points="4292.1 3232 4292.1 3218" stroke-width="1" c_shapetype="line" stroke-linecap="round" fill="none" layerid="3" locked="0"/><polyline points="4292.1 3218 4317.9 3218" stroke-width="1" c_shapetype="line" stroke-linecap="round" fill="none" layerid="3" locked="0"/><g c_partid="part_pad" c_etype="pinpart" c_origin="4295.9,3237.4" layerid="1" plated="Y" c_shapetype="group" locked="0" c_rotation="0" c_width="5.91" c_height="7.87" c_shape="RECT" pasteexpansion="0" solderexpansion="0.4" before-id="gge16"><polygon points="4292.945 3233.465 4298.855 3233.465 4298.855 3241.335 4292.945 3241.335" layerid="7" stroke-width="0.8" c_etype="pad_outer"/><polygon points="4292.945 3233.465 4298.855 3233.465 4298.855 3241.335 4292.945 3241.335" layerid="5" stroke-width="0" c_etype="pad_outer"/><polygon c_etype="pad_shell" points="4292.945 3233.465 4298.855 3233.465 4298.855 3241.335 4292.945 3241.335" layerid="1" stroke-width="0" before-id="1"/><circle c_etype="pad_hole" cx="4295.9" cy="3237.4" r="0" layerid="1" stroke-width="0" before-id="1"/></g><g c_partid="part_pad" c_etype="pinpart" c_origin="4305,3237.4" layerid="1" plated="Y" c_shapetype="group" locked="0" c_rotation="0" c_width="5.91" c_height="7.87" c_shape="RECT" pasteexpansion="0" solderexpansion="0.4" before-id="gge21"><polygon points="4302.045 3233.465 4307.955 3233.465 4307.955 3241.335 4302.045 3241.335" layerid="7" stroke-width="0.8" c_etype="pad_outer"/><polygon points="4302.045 3233.465 4307.955 3233.465 4307.955 3241.335 4302.045 3241.335" layerid="5" stroke-width="0" c_etype="pad_outer"/><polygon c_etype="pad_shell" points="4302.045 3233.465 4307.955 3233.465 4307.955 3241.335 4302.045 3241.335" layerid="1" stroke-width="0" before-id="1"/><circle c_etype="pad_hole" cx="4305" cy="3237.4" r="0" layerid="1" stroke-width="0" before-id="1"/></g><g c_partid="part_pad" c_etype="pinpart" c_origin="4314.1,3237.4" layerid="1" plated="Y" c_shapetype="group" locked="0" c_rotation="0" c_width="5.91" c_height="7.87" c_shape="RECT" pasteexpansion="0" solderexpansion="0.4" before-id="gge26"><polygon points="4311.145 3233.465 4317.055 3233.465 4317.055 3241.335 4311.145 3241.335" layerid="7" stroke-width="0.8" c_etype="pad_outer"/><polygon points="4311.145 3233.465 4317.055 3233.465 4317.055 3241.335 4311.145 3241.335" layerid="5" stroke-width="0" c_etype="pad_outer"/><polygon c_etype="pad_shell" points="4311.145 3233.465 4317.055 3233.465 4317.055 3241.335 4311.145 3241.335" layerid="1" stroke-width="0" before-id="1"/><circle c_etype="pad_hole" cx="4314.1" cy="3237.4" r="0" layerid="1" stroke-width="0" before-id="1"/></g><g c_partid="part_pad" c_etype="pinpart" c_origin="4305,3212.6" layerid="1" plated="Y" c_shapetype="group" locked="0" c_rotation="0" c_width="14.96" c_height="7.87" c_shape="RECT" pasteexpansion="0" solderexpansion="0.4" before-id="gge11"><polygon points="4297.52 3208.665 4312.48 3208.665 4312.48 3216.535 4297.52 3216.535" layerid="7" stroke-width="0.8" c_etype="pad_outer"/><polygon points="4297.52 3208.665 4312.48 3208.665 4312.48 3216.535 4297.52 3216.535" layerid="5" stroke-width="0" c_etype="pad_outer"/><polygon c_etype="pad_shell" points="4297.52 3208.665 4312.48 3208.665 4312.48 3216.535 4297.52 3216.535" layerid="1" stroke-width="0" before-id="1"/><circle c_etype="pad_hole" cx="4305" cy="3212.6" r="0" layerid="1" stroke-width="0" before-id="1"/></g></g><g c_origin="4350,3307" c_para="package`XFW-HX711`" c_partid="part_lib_gge93c8b682d8db6a22" locked="0" c_shapetype="group" c_etype="pinpart" layerid="1" c_rotation="90" uuid="a852957bf7474e29859a0ec934caf2e7" utime="1586654741"><g c_partid="part_pcbtext" c_etype="" c_origin="-8643.103,20473.118" c_rotation="90" c_mirror="0" locked="0" layerid="3" c_shapetype="group" display="none" style=""><path c_fontsize="4.5" c_fontfamily="" c_text="XFW-HX711" d="M -8647.6426 20473.1178 L -8643.3526 20470.2578 M -8647.6426 20470.2578 L -8643.3526 20473.1178 M -8647.6426 20468.9078 L -8643.3526 20468.9078 M -8647.6426 20468.9078 L -8647.6426 20466.2478 M -8645.6026 20468.9078 L -8645.6026 20467.2678 M -8647.6426 20464.8978 L -8643.3526 20463.8678 M -8647.6426 20462.8478 L -8643.3526 20463.8678 M -8647.6426 20462.8478 L -8643.3526 20461.8278 M -8647.6426 20460.8078 L -8643.3526 20461.8278 M -8645.1926 20459.4578 L -8645.1926 20455.7678 M -8647.6426 20454.4178 L -8643.3526 20454.4178 M -8647.6426 20451.5578 L -8643.3526 20451.5578 M -8645.6026 20454.4178 L -8645.6026 20451.5578 M -8647.6426 20450.2078 L -8643.3526 20447.3478 M -8647.6426 20447.3478 L -8643.3526 20450.2078 M -8647.6426 20443.1278 L -8643.3526 20445.1778 M -8647.6426 20445.9978 L -8647.6426 20443.1278 M -8646.8226 20441.7778 L -8647.0326 20441.3678 L -8647.6426 20440.7578 L -8643.3526 20440.7578 M -8646.8226 20439.4078 L -8647.0326 20438.9978 L -8647.6426 20438.3878 L -8643.3526 20438.3878" fill="none" stroke-width="0.6" c_note="note_name" style=""/></g><g c_partid="part_pcbtext" c_etype="" c_origin="4343,3265" c_rotation="90" c_mirror="0" locked="0" layerid="3" c_shapetype="group" style=""><path c_fontsize="4.5" c_fontfamily="" c_text="U2" d="M 4338.46 3265 L 4341.53 3265 L 4342.14 3264.8 L 4342.55 3264.39 L 4342.75 3263.77 L 4342.75 3263.36 L 4342.55 3262.75 L 4342.14 3262.34 L 4341.53 3262.14 L 4338.46 3262.14 M 4339.48 3260.58 L 4339.28 3260.58 L 4338.87 3260.38 L 4338.66 3260.17 L 4338.46 3259.76 L 4338.46 3258.95 L 4338.66 3258.54 L 4338.87 3258.33 L 4339.28 3258.13 L 4339.69 3258.13 L 4340.1 3258.33 L 4340.71 3258.74 L 4342.75 3260.79 L 4342.75 3257.92" fill="none" stroke-width="0.6" c_note="note_pre" style=""/></g><circle cx="4345.5" cy="3310" r="1" stroke-width="1" fill="none" layerid="3" locked="0" c_shapetype="line"/><polyline points="4344.15 3311.528 4344.15 3216.528 4405.843 3216.528 4405.843 3311.528 4344.15 3311.528" stroke-width="1" c_shapetype="line" stroke-linecap="round" fill="none" layerid="3" locked="0"/><g c_partid="part_pad" c_etype="pinpart" c_origin="4350,3307" layerid="11" plated="Y" c_shapetype="group" locked="0" c_rotation="90" c_width="6" c_height="6" c_shape="ELLIPSE" pasteexpansion="0" solderexpansion="0.4"><ellipse cx="4350" cy="3307" rx="3.4" ry="3.4" layerid="8" stroke-width="0" c_etype="pad_outer"/><ellipse cx="4350" cy="3307" rx="3.4" ry="3.4" layerid="7" stroke-width="0" c_etype="pad_outer"/><ellipse c_etype="pad_shell" cx="4350" cy="3307" rx="3" ry="3" layerid="11" stroke-width="0"/><circle c_etype="pad_hole" cx="4350" cy="3307" r="1.9685" layerid="11" stroke-width="0"/></g><g c_partid="part_pad" c_etype="pinpart" c_origin="4360,3307" layerid="11" plated="Y" c_shapetype="group" locked="0" c_rotation="90" c_width="6" c_height="6" c_shape="ELLIPSE" pasteexpansion="0" solderexpansion="0.4"><ellipse cx="4360" cy="3307" rx="3.4" ry="3.4" layerid="8" stroke-width="0" c_etype="pad_outer"/><ellipse cx="4360" cy="3307" rx="3.4" ry="3.4" layerid="7" stroke-width="0" c_etype="pad_outer"/><ellipse c_etype="pad_shell" cx="4360" cy="3307" rx="3" ry="3" layerid="11" stroke-width="0"/><circle c_etype="pad_hole" cx="4360" cy="3307" r="1.9685" layerid="11" stroke-width="0"/></g><g c_partid="part_pad" c_etype="pinpart" c_origin="4370,3307" layerid="11" plated="Y" c_shapetype="group" locked="0" c_rotation="90" c_width="6" c_height="6" c_shape="ELLIPSE" pasteexpansion="0" solderexpansion="0.4"><ellipse cx="4370" cy="3307" rx="3.4" ry="3.4" layerid="8" stroke-width="0" c_etype="pad_outer"/><ellipse cx="4370" cy="3307" rx="3.4" ry="3.4" layerid="7" stroke-width="0" c_etype="pad_outer"/><ellipse c_etype="pad_shell" cx="4370" cy="3307" rx="3" ry="3" layerid="11" stroke-width="0"/><circle c_etype="pad_hole" cx="4370" cy="3307" r="1.9685" layerid="11" stroke-width="0"/></g><g c_partid="part_pad" c_etype="pinpart" c_origin="4380,3307" layerid="11" plated="Y" c_shapetype="group" locked="0" c_rotation="90" c_width="6" c_height="6" c_shape="ELLIPSE" pasteexpansion="0" solderexpansion="0.4"><ellipse cx="4380" cy="3307" rx="3.4" ry="3.4" layerid="8" stroke-width="0" c_etype="pad_outer"/><ellipse cx="4380" cy="3307" rx="3.4" ry="3.4" layerid="7" stroke-width="0" c_etype="pad_outer"/><ellipse c_etype="pad_shell" cx="4380" cy="3307" rx="3" ry="3" layerid="11" stroke-width="0"/><circle c_etype="pad_hole" cx="4380" cy="3307" r="1.9685" layerid="11" stroke-width="0"/></g><g c_partid="part_pad" c_etype="pinpart" c_origin="4390,3307" layerid="11" plated="Y" c_shapetype="group" locked="0" c_rotation="90" c_width="6" c_height="6" c_shape="ELLIPSE" pasteexpansion="0" solderexpansion="0.4"><ellipse cx="4390" cy="3307" rx="3.4" ry="3.4" layerid="8" stroke-width="0" c_etype="pad_outer"/><ellipse cx="4390" cy="3307" rx="3.4" ry="3.4" layerid="7" stroke-width="0" c_etype="pad_outer"/><ellipse c_etype="pad_shell" cx="4390" cy="3307" rx="3" ry="3" layerid="11" stroke-width="0"/><circle c_etype="pad_hole" cx="4390" cy="3307" r="1.9685" layerid="11" stroke-width="0"/></g><g c_partid="part_pad" c_etype="pinpart" c_origin="4400,3307" layerid="11" plated="Y" c_shapetype="group" locked="0" c_rotation="90" c_width="6" c_height="6" c_shape="ELLIPSE" pasteexpansion="0" solderexpansion="0.4"><ellipse cx="4400" cy="3307" rx="3.4" ry="3.4" layerid="8" stroke-width="0" c_etype="pad_outer"/><ellipse cx="4400" cy="3307" rx="3.4" ry="3.4" layerid="7" stroke-width="0" c_etype="pad_outer"/><ellipse c_etype="pad_shell" cx="4400" cy="3307" rx="3" ry="3" layerid="11" stroke-width="0"/><circle c_etype="pad_hole" cx="4400" cy="3307" r="1.9685" layerid="11" stroke-width="0"/></g><g c_partid="part_pad" c_etype="pinpart" c_origin="4390,3227" layerid="11" plated="Y" c_shapetype="group" locked="0" c_rotation="90" c_width="6" c_height="6" c_shape="ELLIPSE" pasteexpansion="0" solderexpansion="0.4"><ellipse cx="4390" cy="3227" rx="3.4" ry="3.4" layerid="8" stroke-width="0" c_etype="pad_outer"/><ellipse cx="4390" cy="3227" rx="3.4" ry="3.4" layerid="7" stroke-width="0" c_etype="pad_outer"/><ellipse c_etype="pad_shell" cx="4390" cy="3227" rx="3" ry="3" layerid="11" stroke-width="0"/><circle c_etype="pad_hole" cx="4390" cy="3227" r="1.9685" layerid="11" stroke-width="0"/></g><g c_partid="part_pad" c_etype="pinpart" c_origin="4380,3227" layerid="11" plated="Y" c_shapetype="group" locked="0" c_rotation="90" c_width="6" c_height="6" c_shape="ELLIPSE" pasteexpansion="0" solderexpansion="0.4"><ellipse cx="4380" cy="3227" rx="3.4" ry="3.4" layerid="8" stroke-width="0" c_etype="pad_outer"/><ellipse cx="4380" cy="3227" rx="3.4" ry="3.4" layerid="7" stroke-width="0" c_etype="pad_outer"/><ellipse c_etype="pad_shell" cx="4380" cy="3227" rx="3" ry="3" layerid="11" stroke-width="0"/><circle c_etype="pad_hole" cx="4380" cy="3227" r="1.9685" layerid="11" stroke-width="0"/></g><g c_partid="part_pad" c_etype="pinpart" c_origin="4370,3227" layerid="11" plated="Y" c_shapetype="group" locked="0" c_rotation="90" c_width="6" c_height="6" c_shape="ELLIPSE" pasteexpansion="0" solderexpansion="0.4"><ellipse cx="4370" cy="3227" rx="3.4" ry="3.4" layerid="8" stroke-width="0" c_etype="pad_outer"/><ellipse cx="4370" cy="3227" rx="3.4" ry="3.4" layerid="7" stroke-width="0" c_etype="pad_outer"/><ellipse c_etype="pad_shell" cx="4370" cy="3227" rx="3" ry="3" layerid="11" stroke-width="0"/><circle c_etype="pad_hole" cx="4370" cy="3227" r="1.9685" layerid="11" stroke-width="0"/></g><g c_partid="part_pad" c_etype="pinpart" c_origin="4360,3227" layerid="11" plated="Y" c_shapetype="group" locked="0" c_rotation="90" c_width="6" c_height="6" c_shape="ELLIPSE" pasteexpansion="0" solderexpansion="0.4"><ellipse cx="4360" cy="3227" rx="3.4" ry="3.4" layerid="8" stroke-width="0" c_etype="pad_outer"/><ellipse cx="4360" cy="3227" rx="3.4" ry="3.4" layerid="7" stroke-width="0" c_etype="pad_outer"/><ellipse c_etype="pad_shell" cx="4360" cy="3227" rx="3" ry="3" layerid="11" stroke-width="0"/><circle c_etype="pad_hole" cx="4360" cy="3227" r="1.9685" layerid="11" stroke-width="0"/></g></g><g c_origin="4370.5,3166.5" c_para="package`RC522 RFID MODULE`" c_partid="part_lib_ggeaaa3ef6a4b3f5601" locked="0" c_shapetype="group" c_etype="pinpart" layerid="1" c_rotation="90" uuid="05081180c2ce48719270d4345344e625" utime="1591522687"><g c_partid="part_pcbtext" c_etype="" c_origin="-21287.5,39004.5" c_rotation="90" c_mirror="0" locked="0" layerid="3" c_shapetype="group" display="none" style=""><path c_fontsize="4.5" c_fontfamily="" c_text="RC522" d="M -21292.04 39004.5 L -21287.75 39004.5 M -21292.04 39004.5 L -21292.04 39002.66 L -21291.84 39002.05 L -21291.63 39001.84 L -21291.22 39001.64 L -21290.81 39001.64 L -21290.4 39001.84 L -21290.2 39002.05 L -21290 39002.66 L -21290 39004.5 M -21290 39003.07 L -21287.75 39001.64 M -21291.02 38997.22 L -21291.43 38997.42 L -21291.84 38997.83 L -21292.04 38998.24 L -21292.04 38999.06 L -21291.84 38999.47 L -21291.43 38999.88 L -21291.02 39000.08 L -21290.4 39000.29 L -21289.38 39000.29 L -21288.77 39000.08 L -21288.36 38999.88 L -21287.95 38999.47 L -21287.75 38999.06 L -21287.75 38998.24 L -21287.95 38997.83 L -21288.36 38997.42 L -21288.77 38997.22 M -21292.04 38993.41 L -21292.04 38995.46 L -21290.2 38995.66 L -21290.4 38995.46 L -21290.61 38994.85 L -21290.61 38994.23 L -21290.4 38993.62 L -21290 38993.21 L -21289.38 38993 L -21288.97 38993 L -21288.36 38993.21 L -21287.95 38993.62 L -21287.75 38994.23 L -21287.75 38994.85 L -21287.95 38995.46 L -21288.15 38995.66 L -21288.56 38995.87 M -21291.02 38991.45 L -21291.22 38991.45 L -21291.63 38991.25 L -21291.84 38991.04 L -21292.04 38990.63 L -21292.04 38989.81 L -21291.84 38989.4 L -21291.63 38989.2 L -21291.22 38989 L -21290.81 38989 L -21290.4 38989.2 L -21289.79 38989.61 L -21287.75 38991.65 L -21287.75 38988.79 M -21291.02 38987.24 L -21291.22 38987.24 L -21291.63 38987.03 L -21291.84 38986.83 L -21292.04 38986.42 L -21292.04 38985.6 L -21291.84 38985.19 L -21291.63 38984.99 L -21291.22 38984.78 L -21290.81 38984.78 L -21290.4 38984.99 L -21289.79 38985.4 L -21287.75 38987.44 L -21287.75 38984.58" fill="none" stroke-width="0.6" c_note="note_name" style=""/></g><g c_partid="part_pcbtext" c_etype="" c_origin="4358.5,3131.5" c_rotation="90" c_mirror="0" locked="0" layerid="3" c_shapetype="group" style=""><path c_fontsize="4.5" c_fontfamily="" c_text="U4" d="M 4353.96 3131.5 L 4357.03 3131.5 L 4357.64 3131.3 L 4358.05 3130.89 L 4358.25 3130.27 L 4358.25 3129.86 L 4358.05 3129.25 L 4357.64 3128.84 L 4357.03 3128.64 L 4353.96 3128.64 M 4353.96 3125.24 L 4356.82 3127.29 L 4356.82 3124.22 M 4353.96 3125.24 L 4358.25 3125.24" fill="none" stroke-width="0.6" c_note="note_pre" style=""/></g><polyline points="4360 3206 4360 3056.394 4592.284 3056.394 4592.284 3206 4360 3206" stroke-width="1" c_shapetype="line" stroke-linecap="round" fill="none" layerid="3" locked="0"/><g c_partid="part_pad" c_etype="pinpart" c_origin="4370.5,3166.5" layerid="11" plated="Y" c_shapetype="group" locked="0" c_rotation="90" c_width="6" c_height="6" c_shape="ELLIPSE" pasteexpansion="0" solderexpansion="0.4"><ellipse cx="4370.5" cy="3166.5" rx="3.4" ry="3.4" layerid="8" stroke-width="0" c_etype="pad_outer"/><ellipse cx="4370.5" cy="3166.5" rx="3.4" ry="3.4" layerid="7" stroke-width="0" c_etype="pad_outer"/><ellipse c_etype="pad_shell" cx="4370.5" cy="3166.5" rx="3" ry="3" layerid="11" stroke-width="0"/><circle c_etype="pad_hole" cx="4370.5" cy="3166.5" r="2.0079" layerid="11" stroke-width="0"/></g><g c_partid="part_pad" c_etype="pinpart" c_origin="4370.5,3156.5" layerid="11" plated="Y" c_shapetype="group" locked="0" c_rotation="90" c_width="6" c_height="6" c_shape="ELLIPSE" pasteexpansion="0" solderexpansion="0.4"><ellipse cx="4370.5" cy="3156.5" rx="3.4" ry="3.4" layerid="8" stroke-width="0" c_etype="pad_outer"/><ellipse cx="4370.5" cy="3156.5" rx="3.4" ry="3.4" layerid="7" stroke-width="0" c_etype="pad_outer"/><ellipse c_etype="pad_shell" cx="4370.5" cy="3156.5" rx="3" ry="3" layerid="11" stroke-width="0"/><circle c_etype="pad_hole" cx="4370.5" cy="3156.5" r="2.0079" layerid="11" stroke-width="0"/></g><g c_partid="part_pad" c_etype="pinpart" c_origin="4370.5,3146.5" layerid="11" plated="Y" c_shapetype="group" locked="0" c_rotation="90" c_width="6" c_height="6" c_shape="ELLIPSE" pasteexpansion="0" solderexpansion="0.4"><ellipse cx="4370.5" cy="3146.5" rx="3.4" ry="3.4" layerid="8" stroke-width="0" c_etype="pad_outer"/><ellipse cx="4370.5" cy="3146.5" rx="3.4" ry="3.4" layerid="7" stroke-width="0" c_etype="pad_outer"/><ellipse c_etype="pad_shell" cx="4370.5" cy="3146.5" rx="3" ry="3" layerid="11" stroke-width="0"/><circle c_etype="pad_hole" cx="4370.5" cy="3146.5" r="2.0079" layerid="11" stroke-width="0"/></g><g c_partid="part_pad" c_etype="pinpart" c_origin="4370.5,3136.5" layerid="11" plated="Y" c_shapetype="group" locked="0" c_rotation="90" c_width="6" c_height="6" c_shape="ELLIPSE" pasteexpansion="0" solderexpansion="0.4"><ellipse cx="4370.5" cy="3136.5" rx="3.4" ry="3.4" layerid="8" stroke-width="0" c_etype="pad_outer"/><ellipse cx="4370.5" cy="3136.5" rx="3.4" ry="3.4" layerid="7" stroke-width="0" c_etype="pad_outer"/><ellipse c_etype="pad_shell" cx="4370.5" cy="3136.5" rx="3" ry="3" layerid="11" stroke-width="0"/><circle c_etype="pad_hole" cx="4370.5" cy="3136.5" r="2.0079" layerid="11" stroke-width="0"/></g><g c_partid="part_pad" c_etype="pinpart" c_origin="4370.5,3126.5" layerid="11" plated="Y" c_shapetype="group" locked="0" c_rotation="90" c_width="6" c_height="6" c_shape="ELLIPSE" pasteexpansion="0" solderexpansion="0.4"><ellipse cx="4370.5" cy="3126.5" rx="3.4" ry="3.4" layerid="8" stroke-width="0" c_etype="pad_outer"/><ellipse cx="4370.5" cy="3126.5" rx="3.4" ry="3.4" layerid="7" stroke-width="0" c_etype="pad_outer"/><ellipse c_etype="pad_shell" cx="4370.5" cy="3126.5" rx="3" ry="3" layerid="11" stroke-width="0"/><circle c_etype="pad_hole" cx="4370.5" cy="3126.5" r="2.0079" layerid="11" stroke-width="0"/></g><g c_partid="part_pad" c_etype="pinpart" c_origin="4370.5,3116.5" layerid="11" plated="Y" c_shapetype="group" locked="0" c_rotation="90" c_width="6" c_height="6" c_shape="ELLIPSE" pasteexpansion="0" solderexpansion="0.4"><ellipse cx="4370.5" cy="3116.5" rx="3.4" ry="3.4" layerid="8" stroke-width="0" c_etype="pad_outer"/><ellipse cx="4370.5" cy="3116.5" rx="3.4" ry="3.4" layerid="7" stroke-width="0" c_etype="pad_outer"/><ellipse c_etype="pad_shell" cx="4370.5" cy="3116.5" rx="3" ry="3" layerid="11" stroke-width="0"/><circle c_etype="pad_hole" cx="4370.5" cy="3116.5" r="2.0079" layerid="11" stroke-width="0"/></g><g c_partid="part_pad" c_etype="pinpart" c_origin="4370.5,3106.5" layerid="11" plated="Y" c_shapetype="group" locked="0" c_rotation="90" c_width="6" c_height="6" c_shape="ELLIPSE" pasteexpansion="0" solderexpansion="0.4"><ellipse cx="4370.5" cy="3106.5" rx="3.4" ry="3.4" layerid="8" stroke-width="0" c_etype="pad_outer"/><ellipse cx="4370.5" cy="3106.5" rx="3.4" ry="3.4" layerid="7" stroke-width="0" c_etype="pad_outer"/><ellipse c_etype="pad_shell" cx="4370.5" cy="3106.5" rx="3" ry="3" layerid="11" stroke-width="0"/><circle c_etype="pad_hole" cx="4370.5" cy="3106.5" r="2.0079" layerid="11" stroke-width="0"/></g><g c_partid="part_pad" c_etype="pinpart" c_origin="4370.5,3096.5" layerid="11" plated="Y" c_shapetype="group" locked="0" c_rotation="90" c_width="6" c_height="6" c_shape="ELLIPSE" pasteexpansion="0" solderexpansion="0.4"><ellipse cx="4370.5" cy="3096.5" rx="3.4" ry="3.4" layerid="8" stroke-width="0" c_etype="pad_outer"/><ellipse cx="4370.5" cy="3096.5" rx="3.4" ry="3.4" layerid="7" stroke-width="0" c_etype="pad_outer"/><ellipse c_etype="pad_shell" cx="4370.5" cy="3096.5" rx="3" ry="3" layerid="11" stroke-width="0"/><circle c_etype="pad_hole" cx="4370.5" cy="3096.5" r="2.0079" layerid="11" stroke-width="0"/></g></g><g c_origin="4427.5,3216" c_para="package`HALF BRIDGE LOAD CELL`" c_partid="part_lib_gge0bdc4250f4defa53" locked="0" c_shapetype="group" c_etype="pinpart" layerid="1" uuid="0bab81762b714b39b974b251085d0689" utime="1591435670"><g c_partid="part_pcbtext" c_etype="" c_origin="4492.5,3208" c_rotation="0" c_mirror="0" locked="0" layerid="3" c_shapetype="group" display="none" style=""><path c_fontsize="4.5" c_fontfamily="" c_text="Half bridge load cell" d="M 4492.5 3203.46 L 4492.5 3207.75 M 4495.36 3203.46 L 4495.36 3207.75 M 4492.5 3205.5 L 4495.36 3205.5 M 4499.17 3204.89 L 4499.17 3207.75 M 4499.17 3205.5 L 4498.76 3205.1 L 4498.35 3204.89 L 4497.74 3204.89 L 4497.33 3205.1 L 4496.92 3205.5 L 4496.71 3206.12 L 4496.71 3206.53 L 4496.92 3207.14 L 4497.33 3207.55 L 4497.74 3207.75 L 4498.35 3207.75 L 4498.76 3207.55 L 4499.17 3207.14 M 4500.52 3203.46 L 4500.52 3207.75 M 4503.5 3203.46 L 4503.1 3203.46 L 4502.69 3203.66 L 4502.48 3204.28 L 4502.48 3207.75 M 4501.87 3204.89 L 4503.3 3204.89 M 4508 3203.46 L 4508 3207.75 M 4508 3205.5 L 4508.41 3205.1 L 4508.82 3204.89 L 4509.44 3204.89 L 4509.85 3205.1 L 4510.25 3205.5 L 4510.46 3206.12 L 4510.46 3206.53 L 4510.25 3207.14 L 4509.85 3207.55 L 4509.44 3207.75 L 4508.82 3207.75 L 4508.41 3207.55 L 4508 3207.14 M 4511.81 3204.89 L 4511.81 3207.75 M 4511.81 3206.12 L 4512.01 3205.5 L 4512.42 3205.1 L 4512.83 3204.89 L 4513.45 3204.89 M 4514.8 3203.46 L 4515 3203.66 L 4515.2 3203.46 L 4515 3203.25 L 4514.8 3203.46 M 4515 3204.89 L 4515 3207.75 M 4519.01 3203.46 L 4519.01 3207.75 M 4519.01 3205.5 L 4518.6 3205.1 L 4518.19 3204.89 L 4517.58 3204.89 L 4517.17 3205.1 L 4516.76 3205.5 L 4516.55 3206.12 L 4516.55 3206.53 L 4516.76 3207.14 L 4517.17 3207.55 L 4517.58 3207.75 L 4518.19 3207.75 L 4518.6 3207.55 L 4519.01 3207.14 M 4522.81 3204.89 L 4522.81 3208.16 L 4522.61 3208.78 L 4522.4 3208.98 L 4522 3209.19 L 4521.38 3209.19 L 4520.97 3208.98 M 4522.81 3205.5 L 4522.4 3205.1 L 4522 3204.89 L 4521.38 3204.89 L 4520.97 3205.1 L 4520.56 3205.5 L 4520.36 3206.12 L 4520.36 3206.53 L 4520.56 3207.14 L 4520.97 3207.55 L 4521.38 3207.75 L 4522 3207.75 L 4522.4 3207.55 L 4522.81 3207.14 M 4524.16 3206.12 L 4526.62 3206.12 L 4526.62 3205.71 L 4526.41 3205.3 L 4526.21 3205.1 L 4525.8 3204.89 L 4525.19 3204.89 L 4524.78 3205.1 L 4524.37 3205.5 L 4524.16 3206.12 L 4524.16 3206.53 L 4524.37 3207.14 L 4524.78 3207.55 L 4525.19 3207.75 L 4525.8 3207.75 L 4526.21 3207.55 L 4526.62 3207.14 M 4531.12 3203.46 L 4531.12 3207.75 M 4533.49 3204.89 L 4533.08 3205.1 L 4532.67 3205.5 L 4532.47 3206.12 L 4532.47 3206.53 L 4532.67 3207.14 L 4533.08 3207.55 L 4533.49 3207.75 L 4534.1 3207.75 L 4534.51 3207.55 L 4534.92 3207.14 L 4535.13 3206.53 L 4535.13 3206.12 L 4534.92 3205.5 L 4534.51 3205.1 L 4534.1 3204.89 L 4533.49 3204.89 M 4538.93 3204.89 L 4538.93 3207.75 M 4538.93 3205.5 L 4538.52 3205.1 L 4538.11 3204.89 L 4537.5 3204.89 L 4537.09 3205.1 L 4536.68 3205.5 L 4536.48 3206.12 L 4536.48 3206.53 L 4536.68 3207.14 L 4537.09 3207.55 L 4537.5 3207.75 L 4538.11 3207.75 L 4538.52 3207.55 L 4538.93 3207.14 M 4542.74 3203.46 L 4542.74 3207.75 M 4542.74 3205.5 L 4542.33 3205.1 L 4541.92 3204.89 L 4541.3 3204.89 L 4540.9 3205.1 L 4540.49 3205.5 L 4540.28 3206.12 L 4540.28 3206.53 L 4540.49 3207.14 L 4540.9 3207.55 L 4541.3 3207.75 L 4541.92 3207.75 L 4542.33 3207.55 L 4542.74 3207.14 M 4549.69 3205.5 L 4549.28 3205.1 L 4548.87 3204.89 L 4548.26 3204.89 L 4547.85 3205.1 L 4547.44 3205.5 L 4547.24 3206.12 L 4547.24 3206.53 L 4547.44 3207.14 L 4547.85 3207.55 L 4548.26 3207.75 L 4548.87 3207.75 L 4549.28 3207.55 L 4549.69 3207.14 M 4551.04 3206.12 L 4553.5 3206.12 L 4553.5 3205.71 L 4553.29 3205.3 L 4553.09 3205.1 L 4552.68 3204.89 L 4552.06 3204.89 L 4551.65 3205.1 L 4551.25 3205.5 L 4551.04 3206.12 L 4551.04 3206.53 L 4551.25 3207.14 L 4551.65 3207.55 L 4552.06 3207.75 L 4552.68 3207.75 L 4553.09 3207.55 L 4553.5 3207.14 M 4554.85 3203.46 L 4554.85 3207.75 M 4556.2 3203.46 L 4556.2 3207.75" fill="none" stroke-width="0.6" c_note="note_name" style=""/></g><g c_partid="part_pcbtext" c_etype="" c_origin="4492.5,3215" c_rotation="0" c_mirror="0" locked="0" layerid="3" c_shapetype="group" style=""><path c_fontsize="4.5" c_fontfamily="" c_text="U3" d="M 4492.5 3210.46 L 4492.5 3213.53 L 4492.7 3214.14 L 4493.11 3214.55 L 4493.73 3214.75 L 4494.14 3214.75 L 4494.75 3214.55 L 4495.16 3214.14 L 4495.36 3213.53 L 4495.36 3210.46 M 4497.12 3210.46 L 4499.37 3210.46 L 4498.15 3212.1 L 4498.76 3212.1 L 4499.17 3212.3 L 4499.37 3212.5 L 4499.58 3213.12 L 4499.58 3213.53 L 4499.37 3214.14 L 4498.96 3214.55 L 4498.35 3214.75 L 4497.74 3214.75 L 4497.12 3214.55 L 4496.92 3214.35 L 4496.71 3213.94" fill="none" stroke-width="0.6" c_note="note_pre" style=""/></g><polyline points="4428 3216 4565.795 3216 4565.795 3353.795 4428 3353.795 4428 3216" stroke-width="1" c_shapetype="line" stroke-linecap="round" fill="none" layerid="3" locked="0"/><g c_partid="part_pad" c_etype="pinpart" c_origin="4428.5,3259" layerid="1" plated="Y" c_shapetype="group" locked="0" c_rotation="0" c_width="15.748" c_height="6" c_shape="RECT" pasteexpansion="0" solderexpansion="0.4" before-id="gge297"><polygon points="4420.626 3256 4436.374 3256 4436.374 3262 4420.626 3262" layerid="7" stroke-width="0.8" c_etype="pad_outer"/><polygon points="4420.626 3256 4436.374 3256 4436.374 3262 4420.626 3262" layerid="5" stroke-width="0" c_etype="pad_outer"/><polygon c_etype="pad_shell" points="4420.626 3256 4436.374 3256 4436.374 3262 4420.626 3262" layerid="1" stroke-width="0" before-id="1"/><circle c_etype="pad_hole" cx="4428.5" cy="3259" r="0" layerid="1" stroke-width="0" before-id="1"/></g><g c_partid="part_pad" c_etype="pinpart" c_origin="4428.5,3287" layerid="1" plated="Y" c_shapetype="group" locked="0" c_rotation="0" c_width="15.748" c_height="6" c_shape="RECT" pasteexpansion="0" solderexpansion="0.4" before-id="gge302"><polygon points="4420.626 3284 4436.374 3284 4436.374 3290 4420.626 3290" layerid="7" stroke-width="0.8" c_etype="pad_outer"/><polygon points="4420.626 3284 4436.374 3284 4436.374 3290 4420.626 3290" layerid="5" stroke-width="0" c_etype="pad_outer"/><polygon c_etype="pad_shell" points="4420.626 3284 4436.374 3284 4436.374 3290 4420.626 3290" layerid="1" stroke-width="0" before-id="1"/><circle c_etype="pad_hole" cx="4428.5" cy="3287" r="0" layerid="1" stroke-width="0" before-id="1"/></g><g c_partid="part_pad" c_etype="pinpart" c_origin="4428.5,3316.5" layerid="1" plated="Y" c_shapetype="group" locked="0" c_rotation="0" c_width="15.748" c_height="6" c_shape="RECT" pasteexpansion="0" solderexpansion="0.4" before-id="gge292"><polygon points="4420.626 3313.5 4436.374 3313.5 4436.374 3319.5 4420.626 3319.5" layerid="7" stroke-width="0.8" c_etype="pad_outer"/><polygon points="4420.626 3313.5 4436.374 3313.5 4436.374 3319.5 4420.626 3319.5" layerid="5" stroke-width="0" c_etype="pad_outer"/><polygon c_etype="pad_shell" points="4420.626 3313.5 4436.374 3313.5 4436.374 3319.5 4420.626 3319.5" layerid="1" stroke-width="0" before-id="1"/><circle c_etype="pad_hole" cx="4428.5" cy="3316.5" r="0" layerid="1" stroke-width="0" before-id="1"/></g></g><g c_origin="4374,3319.5" c_para="package`R0201`" c_partid="part_lib_gge157310c84a9fe4c0" locked="0" c_shapetype="group" c_etype="pinpart" layerid="1" uuid="b600ab0518154c0c9d2ed5ca96244c69" utime="1588157983"><g c_partid="part_pcbtext" c_etype="" c_origin="-29808.062,-22492.603" c_rotation="0" c_mirror="0" locked="0" layerid="3" c_shapetype="group" display="none" style=""><path c_fontsize="4.5" c_fontfamily="" c_text="1k" d="M -29808.0625 -22496.3226 L -29807.6525 -22496.5326 L -29807.0425 -22497.1426 L -29807.0425 -22492.8526 M -29805.6925 -22497.1426 L -29805.6925 -22492.8526 M -29803.6425 -22495.7126 L -29805.6925 -22493.6626 M -29804.8725 -22494.4826 L -29803.4425 -22492.8526" fill="none" stroke-width="0.6" c_note="note_name" style=""/></g><g c_partid="part_pcbtext" c_etype="" c_origin="4376.5,3322" c_rotation="180" c_mirror="0" locked="0" layerid="3" c_shapetype="group" style=""><path c_fontsize="4.5" c_fontfamily="" c_text="R1" d="M 4376.5 3326.54 L 4376.5 3322.25 M 4376.5 3326.54 L 4374.66 3326.54 L 4374.05 3326.34 L 4373.84 3326.13 L 4373.64 3325.72 L 4373.64 3325.31 L 4373.84 3324.9 L 4374.05 3324.7 L 4374.66 3324.5 L 4376.5 3324.5 M 4375.07 3324.5 L 4373.64 3322.25 M 4372.29 3325.72 L 4371.88 3325.93 L 4371.26 3326.54 L 4371.26 3322.25" fill="none" stroke-width="0.6" c_note="note_pre" style=""/></g><polyline points="4371.6378 3318.0039 4373.6063 3318.0039" stroke-width="0.3937" c_shapetype="line" stroke-linecap="round" fill="none" layerid="3" locked="0"/><polyline points="4371.6378 3318.0039 4371.6378 3320.9961" stroke-width="0.3937" c_shapetype="line" stroke-linecap="round" fill="none" layerid="3" locked="0"/><polyline points="4371.6378 3320.9961 4373.6063 3320.9961" stroke-width="0.3937" c_shapetype="line" stroke-linecap="round" fill="none" layerid="3" locked="0"/><polyline points="4374.3937 3320.9961 4376.3622 3320.9961" stroke-width="0.3937" c_shapetype="line" stroke-linecap="round" fill="none" layerid="3" locked="0"/><polyline points="4376.3622 3318.0039 4376.3622 3320.9961" stroke-width="0.3937" c_shapetype="line" stroke-linecap="round" fill="none" layerid="3" locked="0"/><polyline points="4374.3937 3318.0039 4376.3622 3318.0039" stroke-width="0.3937" c_shapetype="line" stroke-linecap="round" fill="none" layerid="3" locked="0"/><g c_partid="part_pad" c_etype="pinpart" c_origin="4375.082,3319.5" layerid="1" plated="Y" c_shapetype="group" locked="0" c_rotation="0" c_width="1.1811" c_height="1.5748" c_shape="RECT" pasteexpansion="0" solderexpansion="0.4" before-id="gge326"><polygon points="4374.4918 3318.7126 4375.6729 3318.7126 4375.6729 3320.2874 4374.4918 3320.2874" layerid="7" stroke-width="0.8" c_etype="pad_outer"/><polygon points="4374.4918 3318.7126 4375.6729 3318.7126 4375.6729 3320.2874 4374.4918 3320.2874" layerid="5" stroke-width="0" c_etype="pad_outer"/><polygon c_etype="pad_shell" points="4374.4918 3318.7126 4375.6729 3318.7126 4375.6729 3320.2874 4374.4918 3320.2874" layerid="1" stroke-width="0" before-id="1"/><circle c_etype="pad_hole" cx="4375.0822" cy="3319.5" r="0" layerid="1" stroke-width="0" before-id="1"/></g><g c_partid="part_pad" c_etype="pinpart" c_origin="4372.917,3319.5" layerid="1" plated="Y" c_shapetype="group" locked="0" c_rotation="0" c_width="1.1811" c_height="1.5748" c_shape="RECT" pasteexpansion="0" solderexpansion="0.4" before-id="gge321"><polygon points="4372.3268 3318.7126 4373.5079 3318.7126 4373.5079 3320.2874 4372.3268 3320.2874" layerid="7" stroke-width="0.8" c_etype="pad_outer"/><polygon points="4372.3268 3318.7126 4373.5079 3318.7126 4373.5079 3320.2874 4372.3268 3320.2874" layerid="5" stroke-width="0" c_etype="pad_outer"/><polygon c_etype="pad_shell" points="4372.3268 3318.7126 4373.5079 3318.7126 4373.5079 3320.2874 4372.3268 3320.2874" layerid="1" stroke-width="0" before-id="1"/><circle c_etype="pad_hole" cx="4372.9176" cy="3319.5" r="0" layerid="1" stroke-width="0" before-id="1"/></g><g c_width="2.3622" c_height="1.1811" c_rotation="0,0,0" z="0" c_origin="0.5,0" uuid="d4bc942584f744c8ab5f747ba7e908cc" c_etype="outline3D" layerid="19" transform="scale(1) translate(0, 0)" style=""><polyline fill="none" c_shapetype="line" points="4372.8189 3318.9095 4372.8189 3320.0906 4372.8976 3320.0906 4373.4094 3320.0906 4374.0969 3320.0906 4374.5905 3320.0906 4375.1024 3320.0906 4375.1811 3320.0906 4375.1811 3318.9095 4375.1024 3318.9095 4374.5905 3318.9095 4374.0969 3318.9095 4373.4094 3318.9095 4372.8976 3318.9095 4372.8189 3318.9095 4372.8189 3318.9095"/></g></g><g c_origin="4360,3319.5" c_para="package`R0201`" c_partid="part_lib_gge663dae3b38c8219e" locked="0" c_shapetype="group" c_etype="pinpart" layerid="1" c_rotation="180" uuid="b600ab0518154c0c9d2ed5ca96244c69" utime="1588157983"><g c_partid="part_pcbtext" c_etype="" c_origin="-21319.062,-16077.603" c_rotation="0" c_mirror="0" locked="0" layerid="3" c_shapetype="group" display="none" style=""><path c_fontsize="4.5" c_fontfamily="" c_text="1k" d="M -21319.0625 -16081.3226 L -21318.6525 -16081.5326 L -21318.0425 -16082.1426 L -21318.0425 -16077.8526 M -21316.6925 -16082.1426 L -21316.6925 -16077.8526 M -21314.6425 -16080.7126 L -21316.6925 -16078.6626 M -21315.8725 -16079.4826 L -21314.4425 -16077.8526" fill="none" stroke-width="0.6" c_note="note_name" style=""/></g><g c_partid="part_pcbtext" c_etype="" c_origin="4360.945,3322.5" c_rotation="180" c_mirror="0" locked="0" layerid="3" c_shapetype="group" style=""><path c_fontsize="4.5" c_fontfamily="" c_text="R2" d="M 4360.9447 3327.04 L 4360.9447 3322.75 M 4360.9447 3327.04 L 4359.1047 3327.04 L 4358.4947 3326.84 L 4358.2847 3326.63 L 4358.0847 3326.22 L 4358.0847 3325.81 L 4358.2847 3325.4 L 4358.4947 3325.2 L 4359.1047 3325 L 4360.9447 3325 M 4359.5147 3325 L 4358.0847 3322.75 M 4356.5247 3326.02 L 4356.5247 3326.22 L 4356.3247 3326.63 L 4356.1147 3326.84 L 4355.7047 3327.04 L 4354.8947 3327.04 L 4354.4847 3326.84 L 4354.2747 3326.63 L 4354.0747 3326.22 L 4354.0747 3325.81 L 4354.2747 3325.4 L 4354.6847 3324.79 L 4356.7347 3322.75 L 4353.8647 3322.75" fill="none" stroke-width="0.6" c_note="note_pre" style=""/></g><polyline points="4362.3622 3320.9961 4360.3937 3320.9961" stroke-width="0.3937" c_shapetype="line" stroke-linecap="round" fill="none" layerid="3" locked="0"/><polyline points="4362.3622 3320.9961 4362.3622 3318.0039" stroke-width="0.3937" c_shapetype="line" stroke-linecap="round" fill="none" layerid="3" locked="0"/><polyline points="4362.3622 3318.0039 4360.3937 3318.0039" stroke-width="0.3937" c_shapetype="line" stroke-linecap="round" fill="none" layerid="3" locked="0"/><polyline points="4359.6063 3318.0039 4357.6378 3318.0039" stroke-width="0.3937" c_shapetype="line" stroke-linecap="round" fill="none" layerid="3" locked="0"/><polyline points="4357.6378 3320.9961 4357.6378 3318.0039" stroke-width="0.3937" c_shapetype="line" stroke-linecap="round" fill="none" layerid="3" locked="0"/><polyline points="4359.6063 3320.9961 4357.6378 3320.9961" stroke-width="0.3937" c_shapetype="line" stroke-linecap="round" fill="none" layerid="3" locked="0"/><g c_partid="part_pad" c_etype="pinpart" c_origin="4358.918,3319.5" layerid="1" plated="Y" c_shapetype="group" locked="0" c_rotation="180" c_width="1.1811" c_height="1.5748" c_shape="RECT" pasteexpansion="0" solderexpansion="0.4" before-id="gge350"><polygon points="4359.5082 3320.2874 4358.3271 3320.2874 4358.3271 3318.7126 4359.5082 3318.7126" layerid="7" stroke-width="0.8" c_etype="pad_outer"/><polygon points="4359.5082 3320.2874 4358.3271 3320.2874 4358.3271 3318.7126 4359.5082 3318.7126" layerid="5" stroke-width="0" c_etype="pad_outer"/><polygon c_etype="pad_shell" points="4359.5082 3320.2874 4358.3271 3320.2874 4358.3271 3318.7126 4359.5082 3318.7126" layerid="1" stroke-width="0" before-id="1"/><circle c_etype="pad_hole" cx="4358.9178" cy="3319.5" r="0" layerid="1" stroke-width="0" before-id="1"/></g><g c_partid="part_pad" c_etype="pinpart" c_origin="4361.083,3319.5" layerid="1" plated="Y" c_shapetype="group" locked="0" c_rotation="180" c_width="1.1811" c_height="1.5748" c_shape="RECT" pasteexpansion="0" solderexpansion="0.4" before-id="gge345"><polygon points="4361.6732 3320.2874 4360.4921 3320.2874 4360.4921 3318.7126 4361.6732 3318.7126" layerid="7" stroke-width="0.8" c_etype="pad_outer"/><polygon points="4361.6732 3320.2874 4360.4921 3320.2874 4360.4921 3318.7126 4361.6732 3318.7126" layerid="5" stroke-width="0" c_etype="pad_outer"/><polygon c_etype="pad_shell" points="4361.6732 3320.2874 4360.4921 3320.2874 4360.4921 3318.7126 4361.6732 3318.7126" layerid="1" stroke-width="0" before-id="1"/><circle c_etype="pad_hole" cx="4361.0824" cy="3319.5" r="0" layerid="1" stroke-width="0" before-id="1"/></g><g c_width="2.3622" c_height="1.1811" c_rotation="0,0,180" z="0" c_origin="0.5,0" uuid="d4bc942584f744c8ab5f747ba7e908cc" c_etype="outline3D" layerid="19" transform="scale(1) translate(0, 0)" style=""><polyline fill="none" c_shapetype="line" points="4361.1811 3320.0905 4361.1811 3318.9094 4361.1024 3318.9094 4360.5906 3318.9094 4359.9031 3318.9094 4359.4095 3318.9094 4358.8976 3318.9094 4358.8189 3318.9094 4358.8189 3320.0905 4358.8976 3320.0905 4359.4095 3320.0905 4359.9031 3320.0905 4360.5906 3320.0905 4361.1024 3320.0905 4361.1811 3320.0905 4361.1811 3320.0905"/></g></g><g c_origin="4311,3158.5" c_para="package`WIFIM-SMD_ESP-12F-ESP8266MOD`" c_partid="part_lib_gge6cc6edcbcd3695de" locked="0" c_shapetype="group" c_etype="pinpart" layerid="1" uuid="21bb26c585544e17a64bb2b57131b3de" utime="1588132269"><g c_partid="part_pcbtext" c_etype="" c_origin="4310.499,3085.486" c_rotation="0" c_mirror="0" locked="0" layerid="3" c_shapetype="group" display="none" style=""><path c_fontsize="4.5" c_fontfamily="" c_text="ESP-12F(ESP8266MOD)" d="M 4310.499 3080.9462 L 4310.499 3085.2362 M 4310.499 3080.9462 L 4313.159 3080.9462 M 4310.499 3082.9862 L 4312.139 3082.9862 M 4310.499 3085.2362 L 4313.159 3085.2362 M 4317.369 3081.5562 L 4316.959 3081.1462 L 4316.349 3080.9462 L 4315.529 3080.9462 L 4314.919 3081.1462 L 4314.509 3081.5562 L 4314.509 3081.9662 L 4314.709 3082.3762 L 4314.919 3082.5862 L 4315.329 3082.7862 L 4316.549 3083.1962 L 4316.959 3083.3962 L 4317.169 3083.6062 L 4317.369 3084.0162 L 4317.369 3084.6262 L 4316.959 3085.0362 L 4316.349 3085.2362 L 4315.529 3085.2362 L 4314.919 3085.0362 L 4314.509 3084.6262 M 4318.719 3080.9462 L 4318.719 3085.2362 M 4318.719 3080.9462 L 4320.559 3080.9462 L 4321.179 3081.1462 L 4321.379 3081.3562 L 4321.589 3081.7662 L 4321.589 3082.3762 L 4321.379 3082.7862 L 4321.179 3082.9862 L 4320.559 3083.1962 L 4318.719 3083.1962 M 4322.939 3083.3962 L 4326.619 3083.3962 M 4327.969 3081.7662 L 4328.379 3081.5562 L 4328.989 3080.9462 L 4328.989 3085.2362 M 4330.549 3081.9662 L 4330.549 3081.7662 L 4330.749 3081.3562 L 4330.949 3081.1462 L 4331.359 3080.9462 L 4332.179 3080.9462 L 4332.589 3081.1462 L 4332.799 3081.3562 L 4332.999 3081.7662 L 4332.999 3082.1762 L 4332.799 3082.5862 L 4332.389 3083.1962 L 4330.339 3085.2362 L 4333.199 3085.2362 M 4334.549 3080.9462 L 4334.549 3085.2362 M 4334.549 3080.9462 L 4337.209 3080.9462 M 4334.549 3082.9862 L 4336.189 3082.9862 M 4339.999 3080.1262 L 4339.589 3080.5362 L 4339.179 3081.1462 L 4338.769 3081.9662 L 4338.559 3082.9862 L 4338.559 3083.8062 L 4338.769 3084.8362 L 4339.179 3085.6462 L 4339.589 3086.2662 L 4339.999 3086.6762 M 4341.349 3080.9462 L 4341.349 3085.2362 M 4341.349 3080.9462 L 4343.999 3080.9462 M 4341.349 3082.9862 L 4342.979 3082.9862 M 4341.349 3085.2362 L 4343.999 3085.2362 M 4348.219 3081.5562 L 4347.809 3081.1462 L 4347.199 3080.9462 L 4346.379 3080.9462 L 4345.759 3081.1462 L 4345.349 3081.5562 L 4345.349 3081.9662 L 4345.559 3082.3762 L 4345.759 3082.5862 L 4346.169 3082.7862 L 4347.399 3083.1962 L 4347.809 3083.3962 L 4348.009 3083.6062 L 4348.219 3084.0162 L 4348.219 3084.6262 L 4347.809 3085.0362 L 4347.199 3085.2362 L 4346.379 3085.2362 L 4345.759 3085.0362 L 4345.349 3084.6262 M 4349.569 3080.9462 L 4349.569 3085.2362 M 4349.569 3080.9462 L 4351.409 3080.9462 L 4352.019 3081.1462 L 4352.229 3081.3562 L 4352.429 3081.7662 L 4352.429 3082.3762 L 4352.229 3082.7862 L 4352.019 3082.9862 L 4351.409 3083.1962 L 4349.569 3083.1962 M 4354.799 3080.9462 L 4354.189 3081.1462 L 4353.989 3081.5562 L 4353.989 3081.9662 L 4354.189 3082.3762 L 4354.599 3082.5862 L 4355.419 3082.7862 L 4356.029 3082.9862 L 4356.439 3083.3962 L 4356.649 3083.8062 L 4356.649 3084.4262 L 4356.439 3084.8362 L 4356.239 3085.0362 L 4355.619 3085.2362 L 4354.799 3085.2362 L 4354.189 3085.0362 L 4353.989 3084.8362 L 4353.779 3084.4262 L 4353.779 3083.8062 L 4353.989 3083.3962 L 4354.399 3082.9862 L 4355.009 3082.7862 L 4355.829 3082.5862 L 4356.239 3082.3762 L 4356.439 3081.9662 L 4356.439 3081.5562 L 4356.239 3081.1462 L 4355.619 3080.9462 L 4354.799 3080.9462 M 4358.199 3081.9662 L 4358.199 3081.7662 L 4358.399 3081.3562 L 4358.609 3081.1462 L 4359.019 3080.9462 L 4359.839 3080.9462 L 4360.249 3081.1462 L 4360.449 3081.3562 L 4360.649 3081.7662 L 4360.649 3082.1762 L 4360.449 3082.5862 L 4360.039 3083.1962 L 4357.999 3085.2362 L 4360.859 3085.2362 M 4364.659 3081.5562 L 4364.459 3081.1462 L 4363.849 3080.9462 L 4363.439 3080.9462 L 4362.819 3081.1462 L 4362.409 3081.7662 L 4362.209 3082.7862 L 4362.209 3083.8062 L 4362.409 3084.6262 L 4362.819 3085.0362 L 4363.439 3085.2362 L 4363.639 3085.2362 L 4364.249 3085.0362 L 4364.659 3084.6262 L 4364.869 3084.0162 L 4364.869 3083.8062 L 4364.659 3083.1962 L 4364.249 3082.7862 L 4363.639 3082.5862 L 4363.439 3082.5862 L 4362.819 3082.7862 L 4362.409 3083.1962 L 4362.209 3083.8062 M 4368.669 3081.5562 L 4368.469 3081.1462 L 4367.849 3080.9462 L 4367.449 3080.9462 L 4366.829 3081.1462 L 4366.419 3081.7662 L 4366.219 3082.7862 L 4366.219 3083.8062 L 4366.419 3084.6262 L 4366.829 3085.0362 L 4367.449 3085.2362 L 4367.649 3085.2362 L 4368.259 3085.0362 L 4368.669 3084.6262 L 4368.879 3084.0162 L 4368.879 3083.8062 L 4368.669 3083.1962 L 4368.259 3082.7862 L 4367.649 3082.5862 L 4367.449 3082.5862 L 4366.829 3082.7862 L 4366.419 3083.1962 L 4366.219 3083.8062 M 4370.229 3080.9462 L 4370.229 3085.2362 M 4370.229 3080.9462 L 4371.859 3085.2362 M 4373.499 3080.9462 L 4371.859 3085.2362 M 4373.499 3080.9462 L 4373.499 3085.2362 M 4376.079 3080.9462 L 4375.669 3081.1462 L 4375.259 3081.5562 L 4375.049 3081.9662 L 4374.849 3082.5862 L 4374.849 3083.6062 L 4375.049 3084.2162 L 4375.259 3084.6262 L 4375.669 3085.0362 L 4376.079 3085.2362 L 4376.899 3085.2362 L 4377.299 3085.0362 L 4377.709 3084.6262 L 4377.919 3084.2162 L 4378.119 3083.6062 L 4378.119 3082.5862 L 4377.919 3081.9662 L 4377.709 3081.5562 L 4377.299 3081.1462 L 4376.899 3080.9462 L 4376.079 3080.9462 M 4379.469 3080.9462 L 4379.469 3085.2362 M 4379.469 3080.9462 L 4380.899 3080.9462 L 4381.519 3081.1462 L 4381.929 3081.5562 L 4382.129 3081.9662 L 4382.339 3082.5862 L 4382.339 3083.6062 L 4382.129 3084.2162 L 4381.929 3084.6262 L 4381.519 3085.0362 L 4380.899 3085.2362 L 4379.469 3085.2362 M 4383.689 3080.1262 L 4384.099 3080.5362 L 4384.499 3081.1462 L 4384.909 3081.9662 L 4385.119 3082.9862 L 4385.119 3083.8062 L 4384.909 3084.8362 L 4384.499 3085.6462 L 4384.099 3086.2662 L 4383.689 3086.6762" fill="none" stroke-width="0.6" c_note="note_name" style=""/></g><g c_partid="part_pcbtext" c_etype="" c_origin="4310.499,3092.486" c_rotation="0" c_mirror="0" locked="0" layerid="3" c_shapetype="group" style=""><path c_fontsize="4.5" c_fontfamily="" c_text="U1" d="M 4310.499 3087.9462 L 4310.499 3091.0162 L 4310.699 3091.6262 L 4311.109 3092.0362 L 4311.729 3092.2362 L 4312.139 3092.2362 L 4312.749 3092.0362 L 4313.159 3091.6262 L 4313.359 3091.0162 L 4313.359 3087.9462 M 4314.709 3088.7662 L 4315.119 3088.5562 L 4315.739 3087.9462 L 4315.739 3092.2362" fill="none" stroke-width="0.6" c_note="note_pre" style=""/></g><polyline points="4287.372 3129.9538 4287.372 3181.1348 4334.616 3181.1348 4334.616 3129.9538 4287.372 3129.9538" stroke-width="1" c_shapetype="line" stroke-linecap="round" fill="none" layerid="3" locked="0"/><polyline points="4330.679 3118.1428 4291.309 3118.1428 4291.309 3098.4578 4295.246 3098.4578 4295.246 3110.2688 4299.183 3110.2688 4299.183 3098.4578 4303.12 3098.4578 4303.12 3110.2688 4307.057 3110.2688 4307.057 3098.4578 4310.994 3098.4578 4310.994 3110.2688 4314.931 3110.2688 4314.931 3098.4578 4338.553 3098.4578" stroke-width="1" c_shapetype="line" stroke-linecap="round" fill="none" layerid="3" locked="0"/><polyline points="4283.435 3122.0798 4338.553 3122.0798" stroke-width="1" c_shapetype="line" stroke-linecap="round" fill="none" layerid="3" locked="0"/><polyline points="4279.498 3094.5208 4342.49 3094.5208" stroke-width="1" c_shapetype="line" stroke-linecap="round" fill="none" layerid="3" locked="0"/><polyline points="4342.49 3094.5208 4342.49 3125.1072" stroke-width="1" c_shapetype="line" stroke-linecap="round" fill="none" layerid="3" locked="0"/><polyline points="4342.49 3130.8642 4342.49 3132.9812" stroke-width="1" c_shapetype="line" stroke-linecap="round" fill="none" layerid="3" locked="0"/><polyline points="4342.49 3138.7382 4342.49 3140.8552" stroke-width="1" c_shapetype="line" stroke-linecap="round" fill="none" layerid="3" locked="0"/><polyline points="4342.49 3146.6122 4342.49 3148.7292" stroke-width="1" c_shapetype="line" stroke-linecap="round" fill="none" layerid="3" locked="0"/><polyline points="4342.49 3154.4862 4342.49 3156.6032" stroke-width="1" c_shapetype="line" stroke-linecap="round" fill="none" layerid="3" locked="0"/><polyline points="4342.49 3162.3602 4342.49 3164.4773" stroke-width="1" c_shapetype="line" stroke-linecap="round" fill="none" layerid="3" locked="0"/><polyline points="4342.49 3170.2343 4342.49 3172.3513" stroke-width="1" c_shapetype="line" stroke-linecap="round" fill="none" layerid="3" locked="0"/><polyline points="4342.49 3178.1083 4342.49 3180.2253" stroke-width="1" c_shapetype="line" stroke-linecap="round" fill="none" layerid="3" locked="0"/><polyline points="4342.49 3185.9823 4342.49 3189.0088" stroke-width="1" c_shapetype="line" stroke-linecap="round" fill="none" layerid="3" locked="0"/><polyline points="4342.49 3189.0088 4333.551 3189.0088" stroke-width="1" c_shapetype="line" stroke-linecap="round" fill="none" layerid="3" locked="0"/><polyline points="4327.794 3189.0088 4325.677 3189.0088" stroke-width="1" c_shapetype="line" stroke-linecap="round" fill="none" layerid="3" locked="0"/><polyline points="4319.92 3189.0088 4317.806 3189.0088" stroke-width="1" c_shapetype="line" stroke-linecap="round" fill="none" layerid="3" locked="0"/><polyline points="4312.049 3189.0088 4309.929 3189.0088" stroke-width="1" c_shapetype="line" stroke-linecap="round" fill="none" layerid="3" locked="0"/><polyline points="4304.172 3189.0088 4302.06 3189.0088" stroke-width="1" c_shapetype="line" stroke-linecap="round" fill="none" layerid="3" locked="0"/><polyline points="4296.303 3189.0088 4294.194 3189.0088" stroke-width="1" c_shapetype="line" stroke-linecap="round" fill="none" layerid="3" locked="0"/><polyline points="4288.437 3189.0088 4279.498 3189.0088" stroke-width="1" c_shapetype="line" stroke-linecap="round" fill="none" layerid="3" locked="0"/><polyline points="4279.498 3189.0088 4279.498 3185.9823" stroke-width="1" c_shapetype="line" stroke-linecap="round" fill="none" layerid="3" locked="0"/><polyline points="4279.498 3180.2253 4279.498 3178.1083" stroke-width="1" c_shapetype="line" stroke-linecap="round" fill="none" layerid="3" locked="0"/><polyline points="4279.498 3172.3513 4279.498 3170.2343" stroke-width="1" c_shapetype="line" stroke-linecap="round" fill="none" layerid="3" locked="0"/><polyline points="4279.498 3164.4773 4279.498 3162.3602" stroke-width="1" c_shapetype="line" stroke-linecap="round" fill="none" layerid="3" locked="0"/><polyline points="4279.498 3156.6032 4279.498 3154.4862" stroke-width="1" c_shapetype="line" stroke-linecap="round" fill="none" layerid="3" locked="0"/><polyline points="4279.498 3148.7292 4279.498 3146.6122" stroke-width="1" c_shapetype="line" stroke-linecap="round" fill="none" layerid="3" locked="0"/><polyline points="4279.498 3140.8552 4279.498 3138.7382" stroke-width="1" c_shapetype="line" stroke-linecap="round" fill="none" layerid="3" locked="0"/><polyline points="4279.498 3132.9812 4279.498 3130.8642" stroke-width="1" c_shapetype="line" stroke-linecap="round" fill="none" layerid="3" locked="0"/><polyline points="4279.498 3125.1072 4279.498 3094.5208" stroke-width="1" c_shapetype="line" stroke-linecap="round" fill="none" layerid="3" locked="0"/><g c_partid="part_pcbtext" c_etype="" c_origin="4293,3155" c_rotation="0" c_mirror="0" locked="0" layerid="3" c_shapetype="group" style=""><path c_fontsize="8" c_fontfamily="" c_text="ESP12F" d="M 4293.01 3150.6396 L 4293.01 3158.2696 M 4293.01 3150.6396 L 4297.73 3150.6396 M 4293.01 3154.2696 L 4295.91 3154.2696 M 4293.01 3158.2696 L 4297.73 3158.2696 M 4305.22 3151.7296 L 4304.5 3150.9996 L 4303.41 3150.6396 L 4301.95 3150.6396 L 4300.86 3150.9996 L 4300.13 3151.7296 L 4300.13 3152.4496 L 4300.5 3153.1796 L 4300.86 3153.5396 L 4301.59 3153.9096 L 4303.77 3154.6396 L 4304.5 3154.9996 L 4304.86 3155.3596 L 4305.22 3156.0896 L 4305.22 3157.1796 L 4304.5 3157.9096 L 4303.41 3158.2696 L 4301.95 3158.2696 L 4300.86 3157.9096 L 4300.13 3157.1796 M 4307.62 3150.6396 L 4307.62 3158.2696 M 4307.62 3150.6396 L 4310.9 3150.6396 L 4311.99 3150.9996 L 4312.35 3151.3596 L 4312.71 3152.0896 L 4312.71 3153.1796 L 4312.35 3153.9096 L 4311.99 3154.2696 L 4310.9 3154.6396 L 4307.62 3154.6396 M 4315.11 3152.0896 L 4315.84 3151.7296 L 4316.93 3150.6396 L 4316.93 3158.2696 M 4319.7 3152.4496 L 4319.7 3152.0896 L 4320.06 3151.3596 L 4320.42 3150.9996 L 4321.15 3150.6396 L 4322.61 3150.6396 L 4323.33 3150.9996 L 4323.7 3151.3596 L 4324.06 3152.0896 L 4324.06 3152.8196 L 4323.7 3153.5396 L 4322.97 3154.6396 L 4319.33 3158.2696 L 4324.42 3158.2696 M 4326.82 3150.6396 L 4326.82 3158.2696 M 4326.82 3150.6396 L 4331.55 3150.6396 M 4326.82 3154.2696 L 4329.73 3154.2696" fill="none" stroke-width="0.8"/></g><g c_partid="part_pad" c_etype="pinpart" c_origin="4342.499,3127.986" layerid="1" plated="Y" c_shapetype="group" locked="0" c_rotation="180" c_width="7.874" c_height="3.937" c_shape="RECT" pasteexpansion="0" solderexpansion="0.4" before-id="gge180"><polygon points="4346.436 3129.9542 4338.562 3129.9542 4338.562 3126.0172 4346.436 3126.0172" layerid="7" stroke-width="0.8" c_etype="pad_outer"/><polygon points="4346.436 3129.9542 4338.562 3129.9542 4338.562 3126.0172 4346.436 3126.0172" layerid="5" stroke-width="0" c_etype="pad_outer"/><polygon c_etype="pad_shell" points="4346.436 3129.9542 4338.562 3129.9542 4338.562 3126.0172 4346.436 3126.0172" layerid="1" stroke-width="0" before-id="1"/><circle c_etype="pad_hole" cx="4342.499" cy="3127.9862" r="0" layerid="1" stroke-width="0" before-id="1"/></g><g c_partid="part_pad" c_etype="pinpart" c_origin="4342.498,3135.86" layerid="1" plated="Y" c_shapetype="group" locked="0" c_rotation="180" c_width="7.874" c_height="3.937" c_shape="RECT" pasteexpansion="0" solderexpansion="0.4" before-id="gge185"><polygon points="4346.435 3137.8282 4338.561 3137.8282 4338.561 3133.8912 4346.435 3133.8912" layerid="7" stroke-width="0.8" c_etype="pad_outer"/><polygon points="4346.435 3137.8282 4338.561 3137.8282 4338.561 3133.8912 4346.435 3133.8912" layerid="5" stroke-width="0" c_etype="pad_outer"/><polygon c_etype="pad_shell" points="4346.435 3137.8282 4338.561 3137.8282 4338.561 3133.8912 4346.435 3133.8912" layerid="1" stroke-width="0" before-id="1"/><circle c_etype="pad_hole" cx="4342.498" cy="3135.8602" r="0" layerid="1" stroke-width="0" before-id="1"/></g><g c_partid="part_pad" c_etype="pinpart" c_origin="4342.499,3143.734" layerid="1" plated="Y" c_shapetype="group" locked="0" c_rotation="180" c_width="7.874" c_height="3.937" c_shape="RECT" pasteexpansion="0" solderexpansion="0.4" before-id="gge190"><polygon points="4346.436 3145.7022 4338.562 3145.7022 4338.562 3141.7652 4346.436 3141.7652" layerid="7" stroke-width="0.8" c_etype="pad_outer"/><polygon points="4346.436 3145.7022 4338.562 3145.7022 4338.562 3141.7652 4346.436 3141.7652" layerid="5" stroke-width="0" c_etype="pad_outer"/><polygon c_etype="pad_shell" points="4346.436 3145.7022 4338.562 3145.7022 4338.562 3141.7652 4346.436 3141.7652" layerid="1" stroke-width="0" before-id="1"/><circle c_etype="pad_hole" cx="4342.499" cy="3143.7342" r="0" layerid="1" stroke-width="0" before-id="1"/></g><g c_partid="part_pad" c_etype="pinpart" c_origin="4342.496,3151.608" layerid="1" plated="Y" c_shapetype="group" locked="0" c_rotation="180" c_width="7.874" c_height="3.937" c_shape="RECT" pasteexpansion="0" solderexpansion="0.4" before-id="gge195"><polygon points="4346.433 3153.5762 4338.559 3153.5762 4338.559 3149.6392 4346.433 3149.6392" layerid="7" stroke-width="0.8" c_etype="pad_outer"/><polygon points="4346.433 3153.5762 4338.559 3153.5762 4338.559 3149.6392 4346.433 3149.6392" layerid="5" stroke-width="0" c_etype="pad_outer"/><polygon c_etype="pad_shell" points="4346.433 3153.5762 4338.559 3153.5762 4338.559 3149.6392 4346.433 3149.6392" layerid="1" stroke-width="0" before-id="1"/><circle c_etype="pad_hole" cx="4342.496" cy="3151.6082" r="0" layerid="1" stroke-width="0" before-id="1"/></g><g c_partid="part_pad" c_etype="pinpart" c_origin="4342.499,3159.482" layerid="1" plated="Y" c_shapetype="group" locked="0" c_rotation="180" c_width="7.874" c_height="3.937" c_shape="RECT" pasteexpansion="0" solderexpansion="0.4" before-id="gge200"><polygon points="4346.436 3161.4502 4338.562 3161.4502 4338.562 3157.5132 4346.436 3157.5132" layerid="7" stroke-width="0.8" c_etype="pad_outer"/><polygon points="4346.436 3161.4502 4338.562 3161.4502 4338.562 3157.5132 4346.436 3157.5132" layerid="5" stroke-width="0" c_etype="pad_outer"/><polygon c_etype="pad_shell" points="4346.436 3161.4502 4338.562 3161.4502 4338.562 3157.5132 4346.436 3157.5132" layerid="1" stroke-width="0" before-id="1"/><circle c_etype="pad_hole" cx="4342.499" cy="3159.4823" r="0" layerid="1" stroke-width="0" before-id="1"/></g><g c_partid="part_pad" c_etype="pinpart" c_origin="4342.502,3167.356" layerid="1" plated="Y" c_shapetype="group" locked="0" c_rotation="180" c_width="7.874" c_height="3.937" c_shape="RECT" pasteexpansion="0" solderexpansion="0.4" before-id="gge205"><polygon points="4346.439 3169.3243 4338.565 3169.3243 4338.565 3165.3873 4346.439 3165.3873" layerid="7" stroke-width="0.8" c_etype="pad_outer"/><polygon points="4346.439 3169.3243 4338.565 3169.3243 4338.565 3165.3873 4346.439 3165.3873" layerid="5" stroke-width="0" c_etype="pad_outer"/><polygon c_etype="pad_shell" points="4346.439 3169.3243 4338.565 3169.3243 4338.565 3165.3873 4346.439 3165.3873" layerid="1" stroke-width="0" before-id="1"/><circle c_etype="pad_hole" cx="4342.502" cy="3167.3563" r="0" layerid="1" stroke-width="0" before-id="1"/></g><g c_partid="part_pad" c_etype="pinpart" c_origin="4342.497,3175.23" layerid="1" plated="Y" c_shapetype="group" locked="0" c_rotation="180" c_width="7.874" c_height="3.937" c_shape="RECT" pasteexpansion="0" solderexpansion="0.4" before-id="gge210"><polygon points="4346.434 3177.1983 4338.56 3177.1983 4338.56 3173.2613 4346.434 3173.2613" layerid="7" stroke-width="0.8" c_etype="pad_outer"/><polygon points="4346.434 3177.1983 4338.56 3177.1983 4338.56 3173.2613 4346.434 3173.2613" layerid="5" stroke-width="0" c_etype="pad_outer"/><polygon c_etype="pad_shell" points="4346.434 3177.1983 4338.56 3177.1983 4338.56 3173.2613 4346.434 3173.2613" layerid="1" stroke-width="0" before-id="1"/><circle c_etype="pad_hole" cx="4342.497" cy="3175.2303" r="0" layerid="1" stroke-width="0" before-id="1"/></g><g c_partid="part_pad" c_etype="pinpart" c_origin="4342.491,3183.104" layerid="1" plated="Y" c_shapetype="group" locked="0" c_rotation="180" c_width="7.874" c_height="3.937" c_shape="RECT" pasteexpansion="0" solderexpansion="0.4" before-id="gge215"><polygon points="4346.428 3185.0723 4338.554 3185.0723 4338.554 3181.1353 4346.428 3181.1353" layerid="7" stroke-width="0.8" c_etype="pad_outer"/><polygon points="4346.428 3185.0723 4338.554 3185.0723 4338.554 3181.1353 4346.428 3181.1353" layerid="5" stroke-width="0" c_etype="pad_outer"/><polygon c_etype="pad_shell" points="4346.428 3185.0723 4338.554 3185.0723 4338.554 3181.1353 4346.428 3181.1353" layerid="1" stroke-width="0" before-id="1"/><circle c_etype="pad_hole" cx="4342.491" cy="3183.1043" r="0" layerid="1" stroke-width="0" before-id="1"/></g><g c_partid="part_pad" c_etype="pinpart" c_origin="4330.673,3189.013" layerid="1" plated="Y" c_shapetype="group" locked="0" c_rotation="90" c_width="7.874" c_height="3.937" c_shape="RECT" pasteexpansion="0" solderexpansion="0.4" before-id="gge220"><polygon points="4328.704 3192.9498 4328.704 3185.0758 4332.641 3185.0758 4332.641 3192.9498" layerid="7" stroke-width="0.8" c_etype="pad_outer"/><polygon points="4328.704 3192.9498 4328.704 3185.0758 4332.641 3185.0758 4332.641 3192.9498" layerid="5" stroke-width="0" c_etype="pad_outer"/><polygon c_etype="pad_shell" points="4328.704 3192.9498 4328.704 3185.0758 4332.641 3185.0758 4332.641 3192.9498" layerid="1" stroke-width="0" before-id="1"/><circle c_etype="pad_hole" cx="4330.673" cy="3189.0128" r="0" layerid="1" stroke-width="0" before-id="1"/></g><g c_partid="part_pad" c_etype="pinpart" c_origin="4322.799,3189.01" layerid="1" plated="Y" c_shapetype="group" locked="0" c_rotation="90" c_width="7.874" c_height="3.937" c_shape="RECT" pasteexpansion="0" solderexpansion="0.4" before-id="gge225"><polygon points="4320.83 3192.9468 4320.83 3185.0728 4324.767 3185.0728 4324.767 3192.9468" layerid="7" stroke-width="0.8" c_etype="pad_outer"/><polygon points="4320.83 3192.9468 4320.83 3185.0728 4324.767 3185.0728 4324.767 3192.9468" layerid="5" stroke-width="0" c_etype="pad_outer"/><polygon c_etype="pad_shell" points="4320.83 3192.9468 4320.83 3185.0728 4324.767 3185.0728 4324.767 3192.9468" layerid="1" stroke-width="0" before-id="1"/><circle c_etype="pad_hole" cx="4322.799" cy="3189.0098" r="0" layerid="1" stroke-width="0" before-id="1"/></g><g c_partid="part_pad" c_etype="pinpart" c_origin="4314.928,3189.01" layerid="1" plated="Y" c_shapetype="group" locked="0" c_rotation="90" c_width="7.874" c_height="3.937" c_shape="RECT" pasteexpansion="0" solderexpansion="0.4" before-id="gge230"><polygon points="4312.959 3192.9468 4312.959 3185.0728 4316.896 3185.0728 4316.896 3192.9468" layerid="7" stroke-width="0.8" c_etype="pad_outer"/><polygon points="4312.959 3192.9468 4312.959 3185.0728 4316.896 3185.0728 4316.896 3192.9468" layerid="5" stroke-width="0" c_etype="pad_outer"/><polygon c_etype="pad_shell" points="4312.959 3192.9468 4312.959 3185.0728 4316.896 3185.0728 4316.896 3192.9468" layerid="1" stroke-width="0" before-id="1"/><circle c_etype="pad_hole" cx="4314.928" cy="3189.0098" r="0" layerid="1" stroke-width="0" before-id="1"/></g><g c_partid="part_pad" c_etype="pinpart" c_origin="4307.051,3189.01" layerid="1" plated="Y" c_shapetype="group" locked="0" c_rotation="90" c_width="7.874" c_height="3.937" c_shape="RECT" pasteexpansion="0" solderexpansion="0.4" before-id="gge235"><polygon points="4305.082 3192.9468 4305.082 3185.0728 4309.019 3185.0728 4309.019 3192.9468" layerid="7" stroke-width="0.8" c_etype="pad_outer"/><polygon points="4305.082 3192.9468 4305.082 3185.0728 4309.019 3185.0728 4309.019 3192.9468" layerid="5" stroke-width="0" c_etype="pad_outer"/><polygon c_etype="pad_shell" points="4305.082 3192.9468 4305.082 3185.0728 4309.019 3185.0728 4309.019 3192.9468" layerid="1" stroke-width="0" before-id="1"/><circle c_etype="pad_hole" cx="4307.051" cy="3189.0098" r="0" layerid="1" stroke-width="0" before-id="1"/></g><g c_partid="part_pad" c_etype="pinpart" c_origin="4299.182,3189.008" layerid="1" plated="Y" c_shapetype="group" locked="0" c_rotation="90" c_width="7.874" c_height="3.937" c_shape="RECT" pasteexpansion="0" solderexpansion="0.4" before-id="gge240"><polygon points="4297.213 3192.9448 4297.213 3185.0708 4301.15 3185.0708 4301.15 3192.9448" layerid="7" stroke-width="0.8" c_etype="pad_outer"/><polygon points="4297.213 3192.9448 4297.213 3185.0708 4301.15 3185.0708 4301.15 3192.9448" layerid="5" stroke-width="0" c_etype="pad_outer"/><polygon c_etype="pad_shell" points="4297.213 3192.9448 4297.213 3185.0708 4301.15 3185.0708 4301.15 3192.9448" layerid="1" stroke-width="0" before-id="1"/><circle c_etype="pad_hole" cx="4299.182" cy="3189.0078" r="0" layerid="1" stroke-width="0" before-id="1"/></g><g c_partid="part_pad" c_etype="pinpart" c_origin="4291.316,3189.014" layerid="1" plated="Y" c_shapetype="group" locked="0" c_rotation="90" c_width="7.874" c_height="3.937" c_shape="RECT" pasteexpansion="0" solderexpansion="0.4" before-id="gge245"><polygon points="4289.347 3192.9508 4289.347 3185.0768 4293.284 3185.0768 4293.284 3192.9508" layerid="7" stroke-width="0.8" c_etype="pad_outer"/><polygon points="4289.347 3192.9508 4289.347 3185.0768 4293.284 3185.0768 4293.284 3192.9508" layerid="5" stroke-width="0" c_etype="pad_outer"/><polygon c_etype="pad_shell" points="4289.347 3192.9508 4289.347 3185.0768 4293.284 3185.0768 4293.284 3192.9508" layerid="1" stroke-width="0" before-id="1"/><circle c_etype="pad_hole" cx="4291.316" cy="3189.0138" r="0" layerid="1" stroke-width="0" before-id="1"/></g><g c_partid="part_pad" c_etype="pinpart" c_origin="4279.501,3183.104" layerid="1" plated="Y" c_shapetype="group" locked="0" c_rotation="0" c_width="7.874" c_height="3.937" c_shape="RECT" pasteexpansion="0" solderexpansion="0.4" before-id="gge250"><polygon points="4275.564 3181.1353 4283.438 3181.1353 4283.438 3185.0723 4275.564 3185.0723" layerid="7" stroke-width="0.8" c_etype="pad_outer"/><polygon points="4275.564 3181.1353 4283.438 3181.1353 4283.438 3185.0723 4275.564 3185.0723" layerid="5" stroke-width="0" c_etype="pad_outer"/><polygon c_etype="pad_shell" points="4275.564 3181.1353 4283.438 3181.1353 4283.438 3185.0723 4275.564 3185.0723" layerid="1" stroke-width="0" before-id="1"/><circle c_etype="pad_hole" cx="4279.501" cy="3183.1043" r="0" layerid="1" stroke-width="0" before-id="1"/></g><g c_partid="part_pad" c_etype="pinpart" c_origin="4279.498,3175.23" layerid="1" plated="Y" c_shapetype="group" locked="0" c_rotation="0" c_width="7.874" c_height="3.937" c_shape="RECT" pasteexpansion="0" solderexpansion="0.4" before-id="gge255"><polygon points="4275.561 3173.2613 4283.435 3173.2613 4283.435 3177.1983 4275.561 3177.1983" layerid="7" stroke-width="0.8" c_etype="pad_outer"/><polygon points="4275.561 3173.2613 4283.435 3173.2613 4283.435 3177.1983 4275.561 3177.1983" layerid="5" stroke-width="0" c_etype="pad_outer"/><polygon c_etype="pad_shell" points="4275.561 3173.2613 4283.435 3173.2613 4283.435 3177.1983 4275.561 3177.1983" layerid="1" stroke-width="0" before-id="1"/><circle c_etype="pad_hole" cx="4279.498" cy="3175.2303" r="0" layerid="1" stroke-width="0" before-id="1"/></g><g c_partid="part_pad" c_etype="pinpart" c_origin="4279.498,3167.356" layerid="1" plated="Y" c_shapetype="group" locked="0" c_rotation="0" c_width="7.874" c_height="3.937" c_shape="RECT" pasteexpansion="0" solderexpansion="0.4" before-id="gge260"><polygon points="4275.561 3165.3873 4283.435 3165.3873 4283.435 3169.3243 4275.561 3169.3243" layerid="7" stroke-width="0.8" c_etype="pad_outer"/><polygon points="4275.561 3165.3873 4283.435 3165.3873 4283.435 3169.3243 4275.561 3169.3243" layerid="5" stroke-width="0" c_etype="pad_outer"/><polygon c_etype="pad_shell" points="4275.561 3165.3873 4283.435 3165.3873 4283.435 3169.3243 4275.561 3169.3243" layerid="1" stroke-width="0" before-id="1"/><circle c_etype="pad_hole" cx="4279.498" cy="3167.3563" r="0" layerid="1" stroke-width="0" before-id="1"/></g><g c_partid="part_pad" c_etype="pinpart" c_origin="4279.498,3159.482" layerid="1" plated="Y" c_shapetype="group" locked="0" c_rotation="0" c_width="7.874" c_height="3.937" c_shape="RECT" pasteexpansion="0" solderexpansion="0.4" before-id="gge265"><polygon points="4275.561 3157.5132 4283.435 3157.5132 4283.435 3161.4502 4275.561 3161.4502" layerid="7" stroke-width="0.8" c_etype="pad_outer"/><polygon points="4275.561 3157.5132 4283.435 3157.5132 4283.435 3161.4502 4275.561 3161.4502" layerid="5" stroke-width="0" c_etype="pad_outer"/><polygon c_etype="pad_shell" points="4275.561 3157.5132 4283.435 3157.5132 4283.435 3161.4502 4275.561 3161.4502" layerid="1" stroke-width="0" before-id="1"/><circle c_etype="pad_hole" cx="4279.498" cy="3159.4823" r="0" layerid="1" stroke-width="0" before-id="1"/></g><g c_partid="part_pad" c_etype="pinpart" c_origin="4279.498,3151.608" layerid="1" plated="Y" c_shapetype="group" locked="0" c_rotation="0" c_width="7.874" c_height="3.937" c_shape="RECT" pasteexpansion="0" solderexpansion="0.4" before-id="gge270"><polygon points="4275.561 3149.6392 4283.435 3149.6392 4283.435 3153.5762 4275.561 3153.5762" layerid="7" stroke-width="0.8" c_etype="pad_outer"/><polygon points="4275.561 3149.6392 4283.435 3149.6392 4283.435 3153.5762 4275.561 3153.5762" layerid="5" stroke-width="0" c_etype="pad_outer"/><polygon c_etype="pad_shell" points="4275.561 3149.6392 4283.435 3149.6392 4283.435 3153.5762 4275.561 3153.5762" layerid="1" stroke-width="0" before-id="1"/><circle c_etype="pad_hole" cx="4279.498" cy="3151.6082" r="0" layerid="1" stroke-width="0" before-id="1"/></g><g c_partid="part_pad" c_etype="pinpart" c_origin="4279.498,3143.734" layerid="1" plated="Y" c_shapetype="group" locked="0" c_rotation="0" c_width="7.874" c_height="3.937" c_shape="RECT" pasteexpansion="0" solderexpansion="0.4" before-id="gge275"><polygon points="4275.561 3141.7652 4283.435 3141.7652 4283.435 3145.7022 4275.561 3145.7022" layerid="7" stroke-width="0.8" c_etype="pad_outer"/><polygon points="4275.561 3141.7652 4283.435 3141.7652 4283.435 3145.7022 4275.561 3145.7022" layerid="5" stroke-width="0" c_etype="pad_outer"/><polygon c_etype="pad_shell" points="4275.561 3141.7652 4283.435 3141.7652 4283.435 3145.7022 4275.561 3145.7022" layerid="1" stroke-width="0" before-id="1"/><circle c_etype="pad_hole" cx="4279.498" cy="3143.7342" r="0" layerid="1" stroke-width="0" before-id="1"/></g><g c_partid="part_pad" c_etype="pinpart" c_origin="4279.498,3135.86" layerid="1" plated="Y" c_shapetype="group" locked="0" c_rotation="0" c_width="7.874" c_height="3.937" c_shape="RECT" pasteexpansion="0" solderexpansion="0.4" before-id="gge280"><polygon points="4275.561 3133.8912 4283.435 3133.8912 4283.435 3137.8282 4275.561 3137.8282" layerid="7" stroke-width="0.8" c_etype="pad_outer"/><polygon points="4275.561 3133.8912 4283.435 3133.8912 4283.435 3137.8282 4275.561 3137.8282" layerid="5" stroke-width="0" c_etype="pad_outer"/><polygon c_etype="pad_shell" points="4275.561 3133.8912 4283.435 3133.8912 4283.435 3137.8282 4275.561 3137.8282" layerid="1" stroke-width="0" before-id="1"/><circle c_etype="pad_hole" cx="4279.498" cy="3135.8602" r="0" layerid="1" stroke-width="0" before-id="1"/></g><g c_partid="part_pad" c_etype="pinpart" c_origin="4279.498,3127.986" layerid="1" plated="Y" c_shapetype="group" locked="0" c_rotation="0" c_width="7.874" c_height="3.937" c_shape="RECT" pasteexpansion="0" solderexpansion="0.4" before-id="gge175"><polygon points="4275.561 3126.0172 4283.435 3126.0172 4283.435 3129.9542 4275.561 3129.9542" layerid="7" stroke-width="0.8" c_etype="pad_outer"/><polygon points="4275.561 3126.0172 4283.435 3126.0172 4283.435 3129.9542 4275.561 3129.9542" layerid="5" stroke-width="0" c_etype="pad_outer"/><polygon c_etype="pad_shell" points="4275.561 3126.0172 4283.435 3126.0172 4283.435 3129.9542 4275.561 3129.9542" layerid="1" stroke-width="0" before-id="1"/><circle c_etype="pad_hole" cx="4279.498" cy="3127.9862" r="0" layerid="1" stroke-width="0" before-id="1"/></g><g c_width="63.0446" c_height="94.4882" c_rotation="0,0,0" z="0" c_origin="-0.5,0" uuid="bbbbba6e1a614c139dc413291e6b9509" c_etype="outline3D" layerid="19" transform="scale(3.9354) translate(0, 0)" style=""><polyline fill="none" c_shapetype="line" points="4302.99 3137.5659 4302.99 3137.7659 4303.06 3137.7659 4303.13 3137.7959 4303.2 3137.8359 4303.25 3137.8859 4303.28 3137.9559 4303.3 3138.0259 4303.3 3138.0959 4303.28 3138.1759 4303.25 3138.2359 4303.2 3138.2959 4303.13 3138.3359 4303.06 3138.3559 4302.99 3138.3659 4303 3138.5659 4302.99 3139.5659 4302.99 3139.7659 4303.06 3139.7659 4303.13 3139.7959 4303.2 3139.8359 4303.25 3139.8859 4303.28 3139.9559 4303.3 3140.0259 4303.3 3140.0959 4303.28 3140.1759 4303.25 3140.2359 4303.2 3140.2959 4303.13 3140.3359 4303.06 3140.3559 4302.99 3140.3659 4303 3140.5659 4302.99 3141.5659 4302.99 3141.7659 4303.06 3141.7659 4303.13 3141.7959 4303.2 3141.8359 4303.25 3141.8859 4303.28 3141.9559 4303.3 3142.0259 4303.3 3142.0959 4303.28 3142.1759 4303.25 3142.2359 4303.2 3142.2959 4303.13 3142.3359 4303.06 3142.3559 4302.99 3142.3659 4303 3142.5659 4303 3143.0759 4302.99 3143.5659 4302.99 3143.7659 4303.06 3143.7659 4303.13 3143.7959 4303.2 3143.8359 4303.25 3143.8859 4303.28 3143.9559 4303.3 3144.0259 4303.3 3144.0959 4303.28 3144.1759 4303.25 3144.2359 4303.2 3144.2959 4303.13 3144.3359 4303.06 3144.3559 4302.99 3144.3659 4303 3144.5659 4302.99 3145.5659 4302.99 3145.7659 4303.06 3145.7659 4303.13 3145.7959 4303.2 3145.8359 4303.25 3145.8859 4303.28 3145.9559 4303.3 3146.0259 4303.3 3146.0959 4303.28 3146.1759 4303.25 3146.2359 4303.2 3146.2959 4303.13 3146.3359 4303.06 3146.3559 4302.99 3146.3659 4303 3146.5659 4302.99 3147.5659 4302.99 3147.7659 4303.06 3147.7659 4303.13 3147.7959 4303.2 3147.8359 4303.25 3147.8859 4303.28 3147.9559 4303.3 3148.0259 4303.3 3148.0959 4303.28 3148.1759 4303.25 3148.2359 4303.2 3148.2959 4303.13 3148.3359 4303.06 3148.3559 4302.99 3148.3659 4303 3148.5659 4302.99 3149.5659 4302.99 3149.7659 4303.06 3149.7659 4303.13 3149.7959 4303.2 3149.8359 4303.25 3149.8859 4303.28 3149.9559 4303.3 3150.0259 4303.3 3150.0959 4303.28 3150.1759 4303.25 3150.2359 4303.2 3150.2959 4303.13 3150.3359 4303.06 3150.3559 4302.99 3150.3659 4303 3150.5659 4302.99 3151.5659 4302.99 3151.7659 4303.06 3151.7659 4303.13 3151.7959 4303.2 3151.8359 4303.25 3151.8859 4303.28 3151.9559 4303.3 3152.0259 4303.3 3152.0959 4303.28 3152.1759 4303.25 3152.2359 4303.2 3152.2959 4303.13 3152.3359 4303.06 3152.3559 4302.99 3152.3659 4303 3152.5659 4303 3152.9159 4303 3153.5659 4303.35 3153.5659 4305.5 3153.5759 4305.7 3153.5759 4305.71 3153.4959 4305.73 3153.4259 4305.77 3153.3659 4305.83 3153.3159 4305.89 3153.2859 4305.96 3153.2659 4306.04 3153.2659 4306.11 3153.2859 4306.17 3153.3159 4306.23 3153.3659 4306.27 3153.4259 4306.29 3153.4959 4306.3 3153.5759 4306.5 3153.5659 4307.5 3153.5759 4307.7 3153.5759 4307.71 3153.4959 4307.73 3153.4259 4307.77 3153.3659 4307.83 3153.3159 4307.89 3153.2859 4307.96 3153.2659 4308.04 3153.2659 4308.11 3153.2859 4308.17 3153.3159 4308.23 3153.3659 4308.27 3153.4259 4308.29 3153.4959 4308.3 3153.5759 4308.5 3153.5659 4309.5 3153.5759 4309.7 3153.5759 4309.71 3153.4959 4309.73 3153.4259 4309.77 3153.3659 4309.83 3153.3159 4309.89 3153.2859 4309.96 3153.2659 4310.04 3153.2659 4310.11 3153.2859 4310.17 3153.3159 4310.23 3153.3659 4310.27 3153.4259 4310.29 3153.4959 4310.3 3153.5759 4310.5 3153.5659 4310.59 3153.5659 4311.5 3153.5759 4311.7 3153.5759 4311.71 3153.4959 4311.73 3153.4259 4311.77 3153.3659 4311.83 3153.3159 4311.89 3153.2859 4311.96 3153.2659 4312.04 3153.2659 4312.11 3153.2859 4312.17 3153.3159 4312.23 3153.3659 4312.27 3153.4259 4312.29 3153.4959 4312.3 3153.5759 4312.5 3153.5659 4313.5 3153.5759 4313.7 3153.5759 4313.71 3153.4959 4313.73 3153.4259 4313.77 3153.3659 4313.83 3153.3159 4313.89 3153.2859 4313.96 3153.2659 4314.04 3153.2659 4314.11 3153.2859 4314.17 3153.3159 4314.23 3153.3659 4314.27 3153.4259 4314.29 3153.4959 4314.3 3153.5759 4314.5 3153.5659 4315.5 3153.5759 4315.7 3153.5759 4315.71 3153.4959 4315.73 3153.4259 4315.77 3153.3659 4315.83 3153.3159 4315.89 3153.2859 4315.96 3153.2659 4316.04 3153.2659 4316.11 3153.2859 4316.17 3153.3159 4316.23 3153.3659 4316.27 3153.4259 4316.29 3153.4959 4316.3 3153.5759 4316.5 3153.5659 4317.09 3153.5659 4318.4 3153.5659 4319 3153.5659 4319 3152.9159 4319.01 3152.5659 4319.01 3152.3659 4318.94 3152.3559 4318.87 3152.3359 4318.81 3152.2959 4318.76 3152.2359 4318.72 3152.1759 4318.7 3152.0959 4318.7 3152.0259 4318.72 3151.9559 4318.76 3151.8859 4318.81 3151.8359 4318.87 3151.7959 4318.94 3151.7659 4319.01 3151.7659 4319 3151.5659 4319.01 3150.5659 4319.01 3150.3659 4318.94 3150.3559 4318.87 3150.3359 4318.81 3150.2959 4318.76 3150.2359 4318.72 3150.1759 4318.7 3150.0959 4318.7 3150.0259 4318.72 3149.9559 4318.76 3149.8859 4318.81 3149.8359 4318.87 3149.7959 4318.94 3149.7659 4319.01 3149.7659 4319 3149.5659 4319.01 3148.5659 4319.01 3148.3659 4318.94 3148.3559 4318.87 3148.3359 4318.81 3148.2959 4318.76 3148.2359 4318.72 3148.1759 4318.7 3148.0959 4318.7 3148.0259 4318.72 3147.9559 4318.76 3147.8859 4318.81 3147.8359 4318.87 3147.7959 4318.94 3147.7659 4319.01 3147.7659 4319 3147.5659 4319.01 3146.5659 4319.01 3146.3659 4318.94 3146.3559 4318.87 3146.3359 4318.81 3146.2959 4318.76 3146.2359 4318.72 3146.1759 4318.7 3146.0959 4318.7 3146.0259 4318.72 3145.9559 4318.76 3145.8859 4318.81 3145.8359 4318.87 3145.7959 4318.94 3145.7659 4319.01 3145.7659 4319 3145.5659 4319.01 3144.5659 4319.01 3144.3659 4318.94 3144.3559 4318.87 3144.3359 4318.81 3144.2959 4318.76 3144.2359 4318.72 3144.1759 4318.7 3144.0959 4318.7 3144.0259 4318.72 3143.9559 4318.76 3143.8859 4318.81 3143.8359 4318.87 3143.7959 4318.94 3143.7659 4319.01 3143.7659 4319 3143.5659 4319 3143.0759 4319.01 3142.5659 4319.01 3142.3659 4318.94 3142.3559 4318.87 3142.3359 4318.81 3142.2959 4318.76 3142.2359 4318.72 3142.1759 4318.7 3142.0959 4318.7 3142.0259 4318.72 3141.9559 4318.76 3141.8859 4318.81 3141.8359 4318.87 3141.7959 4318.94 3141.7659 4319.01 3141.7659 4319 3141.5659 4319.01 3140.5659 4319.01 3140.3659 4318.94 3140.3559 4318.87 3140.3359 4318.81 3140.2959 4318.76 3140.2359 4318.72 3140.1759 4318.7 3140.0959 4318.7 3140.0259 4318.72 3139.9559 4318.76 3139.8859 4318.81 3139.8359 4318.87 3139.7959 4318.94 3139.7659 4319.01 3139.7659 4319 3139.5659 4319.01 3138.5659 4319.01 3138.3659 4318.94 3138.3559 4318.87 3138.3359 4318.81 3138.2959 4318.76 3138.2359 4318.72 3138.1759 4318.7 3138.0959 4318.7 3138.0259 4318.72 3137.9559 4318.76 3137.8859 4318.81 3137.8359 4318.87 3137.7959 4318.94 3137.7659 4319.01 3137.7659 4319 3137.5659 4319 3137.1659 4319 3136.9659 4319 3135.6659 4319 3135.2659 4319 3129.5659 4318.4 3129.5659 4317.09 3129.5659 4315.6 3129.5659 4310.59 3129.5659 4310.25 3129.5659 4303.35 3129.5659 4303 3129.5659 4303 3135.2659 4303 3135.6659 4303 3136.9659 4303 3137.1659 4303 3137.5659 4302.99 3137.5659 4302.99 3137.5659"/></g></g></g><g><g c_partid="part_via" c_etype="pinpart" c_shapetype="group" c_origin="4336.5,3193.5" layerid="11" locked="0" solderexpansion=""><circle cx="4336.5" cy="3193.5" r="1.2" stroke-width="0" c_etype="pad_shell"/><circle cx="4336.5" cy="3193.5" r="0.6" stroke-width="0" c_etype="pad_hole"/></g><g c_partid="part_via" c_etype="pinpart" c_shapetype="group" c_origin="4350,3202.5" layerid="11" locked="0" solderexpansion=""><circle cx="4350" cy="3202.5" r="1.2" stroke-width="0" c_etype="pad_shell"/><circle cx="4350" cy="3202.5" r="0.6" stroke-width="0" c_etype="pad_hole"/></g><g c_partid="part_via" c_etype="pinpart" c_shapetype="group" c_origin="4334.5,3197" layerid="11" locked="0" solderexpansion=""><circle cx="4334.5" cy="3197" r="1.2" stroke-width="0" c_etype="pad_shell"/><circle cx="4334.5" cy="3197" r="0.6" stroke-width="0" c_etype="pad_hole"/></g><g c_partid="part_via" c_etype="pinpart" c_shapetype="group" c_origin="4348,3204.5" layerid="11" locked="0" solderexpansion=""><circle cx="4348" cy="3204.5" r="1.2" stroke-width="0" c_etype="pad_shell"/><circle cx="4348" cy="3204.5" r="0.6" stroke-width="0" c_etype="pad_hole"/></g><g c_partid="part_via" c_etype="pinpart" c_shapetype="group" c_origin="4344,3193" layerid="11" locked="0" solderexpansion=""><circle cx="4344" cy="3193" r="1.2" stroke-width="0" c_etype="pad_shell"/><circle cx="4344" cy="3193" r="0.6" stroke-width="0" c_etype="pad_hole"/></g><g c_partid="part_via" c_etype="pinpart" c_shapetype="group" c_origin="4349,3179" layerid="11" locked="0" solderexpansion=""><circle cx="4349" cy="3179" r="1.2" stroke-width="0" c_etype="pad_shell"/><circle cx="4349" cy="3179" r="0.6" stroke-width="0" c_etype="pad_hole"/></g><g c_partid="part_via" c_etype="pinpart" c_shapetype="group" c_origin="4355,3132.5" layerid="11" locked="0" solderexpansion=""><circle cx="4355" cy="3132.5" r="1.2" stroke-width="0" c_etype="pad_shell"/><circle cx="4355" cy="3132.5" r="0.6" stroke-width="0" c_etype="pad_hole"/></g><g c_partid="part_via" c_etype="pinpart" c_shapetype="group" c_origin="4349,3140.5" layerid="11" locked="0" solderexpansion=""><circle cx="4349" cy="3140.5" r="1.2" stroke-width="0" c_etype="pad_shell"/><circle cx="4349" cy="3140.5" r="0.6" stroke-width="0" c_etype="pad_hole"/></g><g c_partid="part_via" c_etype="pinpart" c_shapetype="group" c_origin="4365.5,3139" layerid="11" locked="0" solderexpansion=""><circle cx="4365.5" cy="3139" r="1.2" stroke-width="0" c_etype="pad_shell"/><circle cx="4365.5" cy="3139" r="0.6" stroke-width="0" c_etype="pad_hole"/></g><g c_partid="part_via" c_etype="pinpart" c_shapetype="group" c_origin="4365.5,3149.5" layerid="11" locked="0" solderexpansion=""><circle cx="4365.5" cy="3149.5" r="1.2" stroke-width="0" c_etype="pad_shell"/><circle cx="4365.5" cy="3149.5" r="0.6" stroke-width="0" c_etype="pad_hole"/></g><g c_partid="part_via" c_etype="pinpart" c_shapetype="group" c_origin="4349,3148.5" layerid="11" locked="0" solderexpansion=""><circle cx="4349" cy="3148.5" r="1.2" stroke-width="0" c_etype="pad_shell"/><circle cx="4349" cy="3148.5" r="0.6" stroke-width="0" c_etype="pad_hole"/></g><g c_partid="part_via" c_etype="pinpart" c_shapetype="group" c_origin="4362,3170" layerid="11" locked="0" solderexpansion=""><circle cx="4362" cy="3170" r="1.2" stroke-width="0" c_etype="pad_shell"/><circle cx="4362" cy="3170" r="0.6" stroke-width="0" c_etype="pad_hole"/></g><g c_partid="part_via" c_etype="pinpart" c_shapetype="group" c_origin="4349,3156.5" layerid="11" locked="0" solderexpansion=""><circle cx="4349" cy="3156.5" r="1.2" stroke-width="0" c_etype="pad_shell"/><circle cx="4349" cy="3156.5" r="0.6" stroke-width="0" c_etype="pad_hole"/></g><g c_partid="part_via" c_etype="pinpart" c_shapetype="group" c_origin="4357,3160.5" layerid="11" locked="0" solderexpansion=""><circle cx="4357" cy="3160.5" r="1.2" stroke-width="0" c_etype="pad_shell"/><circle cx="4357" cy="3160.5" r="0.6" stroke-width="0" c_etype="pad_hole"/></g><g c_partid="part_via" c_etype="pinpart" c_shapetype="group" c_origin="4302,3247.5" layerid="11" locked="0" solderexpansion=""><circle cx="4302" cy="3247.5" r="1.2" stroke-width="0" c_etype="pad_shell"/><circle cx="4302" cy="3247.5" r="0.6" stroke-width="0" c_etype="pad_hole"/></g><g c_partid="part_hole" c_etype="pinpart" c_shapetype="group" c_origin="4585.5,3339.5" layerid="11" locked="0"><path d="M4576.626,3330.626L4594.374,3348.374M4576.626,3348.374L4594.374,3330.626" fill="none" stroke-width="0.8"/><circle cx="4585.5" cy="3339.5" r="7.874" stroke-width="0"/><ellipse cx="4585.5" cy="3339.5" rx="7.874" ry="7.874" fill="none" stroke-width="0.5"/></g><g c_partid="part_hole" c_etype="pinpart" c_shapetype="group" c_origin="4276,3340" layerid="11" locked="0"><path d="M4267.126,3331.126L4284.874,3348.874M4267.126,3348.874L4284.874,3331.126" fill="none" stroke-width="0.8"/><circle cx="4276" cy="3340" r="7.874" stroke-width="0"/><ellipse cx="4276" cy="3340" rx="7.874" ry="7.874" fill="none" stroke-width="0.5"/></g><g c_partid="part_hole" c_etype="pinpart" c_shapetype="group" c_origin="4276,3069.5" layerid="11" locked="0"><path d="M4267.126,3060.626L4284.874,3078.374M4267.126,3078.374L4284.874,3060.626" fill="none" stroke-width="0.8"/><circle cx="4276" cy="3069.5" r="7.874" stroke-width="0"/><ellipse cx="4276" cy="3069.5" rx="7.874" ry="7.874" fill="none" stroke-width="0.5"/></g></g><g><line stroke="#6464FF" fill="none" x1="4427.5" x2="4428.5" y1="3287" y2="3287" c_shapetype="line" layerid="9" pad-ids="gge868,gge297"/></g></g></svg>